<?xml version="1.0" encoding="utf-8"?>
<!-- Generator: Adobe Illustrator 22.0.1, SVG Export Plug-In . SVG Version: 6.00 Build 0)  -->
<svg version="1.1" id="Layer_1" xmlns="http://www.w3.org/2000/svg" xmlns:xlink="http://www.w3.org/1999/xlink" x="0px" y="0px"
	 viewBox="0 0 3766.5 775" style="enable-background:new 0 0 3766.5 775;" xml:space="preserve">
<style type="text/css">
	.st0{fill:#A0DCF2;}
	.st1{fill:#7FBCE7;}
	.st2{fill:#020202;}
	.st3{fill:#F5CCB4;}
	.st4{fill:#FFFFFF;}
	.st5{fill:#B05D52;}
	.st6{fill:#C5E6DA;}
</style>
<g>
	<path class="st0" d="M374.2,689.4c2.5,5.7,3.9,12.5,3.9,20.6v61.3c4.3,0.4,8.7,0.8,13.1,1.1v-39.3
		C391.2,733.1,390.2,701.8,374.2,689.4z"/>
	<path class="st0" d="M491.8,733.1v39.7c4.4-0.3,8.8-0.6,13.1-1V710c0-8.1,1.5-14.9,3.9-20.6C492.8,701.8,491.8,733.1,491.8,733.1z"
		/>
	<path class="st0" d="M691.9,688c0-47.9-110.9-86.4-247.6-86.4c-136.7,0-247.6,38.6-247.6,86.4c0,34.1,57.1,63.8,139.8,77.8V711
		c0,0-2.4-26.2-26.5-35.1c0,0-14.5-10,1-15.5c0,0,44.5-3.6,61,24.7c-1.8-5.5-2.5-14.5,14.7-10.6c0,0,46.1,6.9,48.2,60.6l0.4,39.2
		c3,0,5.9,0.1,8.9,0.1c1.1,0,2.3,0,3.4,0l0.4-39.2c2.1-54.1,48.2-60.6,48.2-60.6c17-3.6,16.5,5.1,14.8,10.5
		c16.6-28.3,61-24.6,61-24.6c15.2,5.5,1,15.5,1,15.5c-24.5,8.6-26.5,35.1-26.5,35.1v55.7C632.2,753.2,691.9,723.1,691.9,688z"/>
	<path class="st1" d="M509.3,689c0,0,0.9-1.7,1.7-4c-0.8,1.4-1.5,2.8-2.2,4.4C509,689.3,509.2,689.1,509.3,689z"/>
	<path class="st1" d="M573.1,675.9c0,0,14.1-10-1-15.5c0,0-44.4-3.6-61,24.6c-0.7,2.3-1.7,4-1.7,4c-0.2,0.1-0.4,0.3-0.5,0.4
		c-2.5,5.7-3.9,12.5-3.9,20.6v61.8c14.4-1.3,28.4-3,41.7-5.1V711C546.5,711,548.6,684.5,573.1,675.9z"/>
	<path class="st1" d="M391.2,733.1v39.3c14.3,1.1,29,1.8,44.1,1.9l-0.4-39.2c-2.1-53.7-48.2-60.6-48.2-60.6
		c-17.2-3.9-16.5,5.1-14.7,10.6c0.8,1.4,1.5,2.8,2.2,4.3C390.2,701.8,391.2,733.1,391.2,733.1z"/>
	<path class="st1" d="M374.2,689.4c-0.7-1.5-1.4-2.9-2.2-4.3c0.7,2.2,1.6,3.9,1.6,3.9C373.8,689.1,374,689.3,374.2,689.4z"/>
	<path class="st1" d="M491.8,733.1c0,0,1-31.3,17-43.7c0.7-1.5,1.4-3,2.2-4.4c1.8-5.4,2.3-14.2-14.8-10.5c0,0-46.1,6.5-48.2,60.6
		l-0.4,39.2c15.1-0.1,29.8-0.6,44.1-1.6V733.1z"/>
	<path class="st1" d="M378.1,710c0-8.1-1.5-14.9-3.9-20.6c-0.2-0.1-0.4-0.3-0.5-0.4c0,0-0.9-1.7-1.6-3.9c-16.6-28.4-61-24.7-61-24.7
		c-15.5,5.5-1,15.5-1,15.5c24.1,9,26.5,35.1,26.5,35.1v54.7c13.3,2.3,27.2,4.1,41.7,5.5V710z"/>
	<path class="st0" d="M161.5,433.5l-7.2,24.8c0,0-1.7,9,6.5,10.7c9-0.3,8.3-8.6,7.6-11L161.5,433.5L161.5,433.5z"/>
	<path class="st2" d="M880.9,329.1l0.7-3.1c-72.7-14.5-147.1-14.8-192.2-12.7c7.2-26.5,9.6-57.5,9.6-91.6
		c0-49.2-18.6-88.5-48.2-118.1C656,86.7,662.9,49.1,644,1.3c0,0-33.7-10.7-110.5,40.6c-30-7.6-62-11.4-94-11.4
		c-35.1,0-70.6,4.5-104,13.4c-79.2-54.1-114-43-114-43c-22.7,56.8-8.6,99.2-4.5,109.5c-26.9,28.9-43,65.8-43,110.9
		c0,34.1,3.8,64.7,13.4,91.3c-45.5-1.7-117.1-1-187.3,13.1l0.7,3.1c70.3-14.1,142.6-14.5,187.7-12.7c2.1,5.5,4.5,11,6.9,16.2
		c-44.8,1.4-120.9,7.2-193.9,27.9l1,3.1c73.7-20.7,150.5-26.2,194.9-27.6c26.9,49.6,79.2,82,172.9,92c-13.4,9-26.9,24.1-32.4,49.9
		c-18.3,8.6-75.4,30-109.9-29.3c0,0-19.3-35.1-56.1-37.9c0,0-35.8-0.7-2.4,22.4c0,0,23.8,11.4,40.3,53.7c0,0,21.7,72.3,125.4,48.9
		v74c0,0-2.1,26.5-26.5,35.1c0,0-14.5,10,1,15.5c0,0,67.2,5.5,67.2-49.6v-81.3c0,0-2.8-32.4,13.1-43.4v133.6c0,0-1,32-17.6,44.1
		c0,0-11,19.6,13.1,14.5c0,0,46.1-6.5,48.2-60.6l1-135.3h11l1,135.3c2.1,53.7,48.2,60.6,48.2,60.6c24.1,5.5,13.1-14.5,13.1-14.5
		c-16.5-12.1-17.6-44.1-17.6-44.1V486.8c15.8,12.4,13.1,42.4,13.1,42.4v81.3c0,55.1,67.2,49.6,67.2,49.6c15.5-5.5,1-15.5,1-15.5
		c-24.1-9-26.5-35.1-26.5-35.1V502.7c0-41.7-17.6-63.7-34.8-75.1c99.9-10,147.7-42,169.8-92.3c43.7,1,122.6,6.5,197.7,27.9l1-3.1
		c-74.7-21-152.9-26.5-197.3-27.9c2.1-5.2,3.8-10.3,5.5-15.8C733.2,314.7,807.9,314.7,880.9,329.1L880.9,329.1z"/>
	<path class="st3" d="M601.3,219.3c21.4,19.6,34.1,43,34.1,68.2c0,118.5-88.2,121.6-197,121.6s-197-16.5-197-121.6
		c0-25.1,12.4-48.6,33.7-67.8c35.5-32.4,95.4-15.2,163.2-15.2S565.8,186.9,601.3,219.3L601.3,219.3z"/>
	<path class="st4" d="M373,293.6c0,32.7-18.3,58.9-41,58.9c-22.7,0-41-26.5-41-58.9c0-32.7,18.3-58.9,41-58.9
		C354.7,234.4,373,260.9,373,293.6z"/>
	<path class="st5" d="M359.9,294.3c0,21.7-12.4,39.3-27.2,39.3c-15.2,0-27.2-17.6-27.2-39.3s12.4-39.3,27.2-39.3
		S359.9,272.6,359.9,294.3z"/>
	<path class="st4" d="M593,293.6c0,32.7-18.3,58.9-41,58.9c-22.7,0-41-26.5-41-58.9c0-32.7,18.3-58.9,41-58.9
		C574.4,234.4,593,260.9,593,293.6z"/>
	<path class="st5" d="M579.6,294.3c0,21.7-12.4,39.3-27.2,39.3c-15.2,0-27.2-17.6-27.2-39.3s12.4-39.3,27.2-39.3
		C567.5,255.1,579.6,272.6,579.6,294.3z M449.4,346c0,5.5-4.5,10.3-10.3,10.3c-5.5,0-10.3-4.5-10.3-10.3s4.5-10.3,10.3-10.3
		C444.6,335.7,449.4,340.1,449.4,346z M415.3,371.8c-0.7-1.7,0.3-3.4,2.1-4.1c1.7-0.7,3.4,0.3,4.1,2.1c2.8,7.6,9.6,12.4,17.6,12.4
		s14.8-5.2,17.6-12.4c0.7-1.7,2.4-2.8,4.1-2.1c1.7,0.7,2.8,2.4,2.1,4.1c-3.4,10-13.1,16.9-23.8,16.9S418.8,381.8,415.3,371.8
		L415.3,371.8z"/>
	<path class="st6" d="M187.7,418.7c0,2.8-3.1,4.8-7.2,4.8c-3.8,0-7.2-2.1-7.2-4.8s3.1-4.8,7.2-4.8
		C184.6,413.8,187.7,415.9,187.7,418.7z M207.7,429.7c0,2.8-3.1,4.8-7.2,4.8c-3.8,0-7.2-2.1-7.2-4.8s3.1-4.8,7.2-4.8
		C204.6,424.9,207.7,426.9,207.7,429.7z M219.7,444.1c0,2.8-3.1,4.8-7.2,4.8c-3.8,0-7.2-2.1-7.2-4.8c0-2.8,3.1-4.8,7.2-4.8
		C216.6,439,219.7,441.4,219.7,444.1z M230.7,460.7c0,2.8-3.1,4.8-7.2,4.8c-3.8,0-7.2-2.1-7.2-4.8c0-2.8,3.1-4.8,7.2-4.8
		C227.6,455.5,230.7,457.9,230.7,460.7z M242.8,475.8c0,2.8-3.1,4.8-7.2,4.8c-3.8,0-7.2-2.1-7.2-4.8c0-2.8,3.1-4.8,7.2-4.8
		C239.7,471,242.8,473.1,242.8,475.8z M259.3,489.3c0,2.8-3.1,4.8-7.2,4.8c-3.8,0-7.2-2.1-7.2-4.8c0-2.8,3.1-4.8,7.2-4.8
		C256.2,484.1,259.3,486.5,259.3,489.3z M282.4,497.9c0,2.8-3.1,4.8-7.2,4.8c-3.8,0-7.2-2.1-7.2-4.8c0-2.8,3.1-4.8,7.2-4.8
		S282.4,495.1,282.4,497.9z M305.5,497.9c0,2.8-3.1,4.8-7.2,4.8c-3.8,0-7.2-2.1-7.2-4.8c0-2.8,3.1-4.8,7.2-4.8
		C302.4,493,305.5,495.1,305.5,497.9z M328.9,494.1c0,2.8-3.1,4.8-7.2,4.8c-3.8,0-7.2-2.1-7.2-4.8c0-2.8,3.1-4.8,7.2-4.8
		C325.4,489.3,328.9,491.3,328.9,494.1z"/>
</g>
<path class="st2" d="M2094.2,641.9h-1.3c0.6,0,1,0.6,1.5,0.7c0.1,0,0.3-0.1,0.4-0.1L2094.2,641.9z M2094.5,642.6
	c-6,0.1-20.9,3.1-36.7,3.1c-49.9,0-67.2-23-67.2-53.1V392.3h101.8c5.8,0,10.2-5.1,10.2-12.2V271.4c0-5.8-5.1-10.9-10.2-10.9h-101.8
	v-135c0-5.1-3.2-8.3-9-8.3h-138.2c-5.8,0-9,3.2-9,8.3v138.9c0,0-69.8,17.3-74.2,17.9c-5.1,1.3-8.3,5.8-8.3,10.9v87
	c0,7,5.1,12.2,10.9,12.2h71v209.9c0,156.2,108.8,172.2,183,172.2c33.9,0,74.9-10.9,81.3-14.1c3.8-1.3,5.8-5.8,5.8-10.2v-96
	C2103.8,647.8,2099.4,643.5,2094.5,642.6z M3611,501.8c0-115.8-46.7-131.2-96-126.1c-38.4,2.6-69.1,21.8-69.1,21.8v225.3
	c0,0,31.4,21.8,78.1,23C3589.9,647.7,3611,624,3611,501.8z M3766.5,491.5c0,219.5-71,282.2-195.2,282.2
	c-105,0-161.3-53.1-161.3-53.1s-2.6,29.4-5.8,33.3c-1.9,3.8-5.1,5.1-9,5.1h-94.7c-6.4,0-12.2-5.1-12.2-10.9l1.3-711
	c0-5.8,5.1-10.9,10.9-10.9h136.3c5.8,0,10.9,5.1,10.9,10.9v241.3c0,0,52.5-33.9,129.3-33.9l-0.6-1.3
	C3653.2,243.2,3766.5,272,3766.5,491.5z M3208.4,260.5h-0.6H3074c-7,0-10.9,5.1-10.9,12.2v348.2c0,0-35.2,25-83.2,25
	s-62.1-21.8-62.1-69.8V272c0-5.8-5.1-10.9-10.9-10.9h-137c-5.8,0-10.9,5.1-10.9,10.9v327c0,140.8,78.7,176,186.9,176
	c89,0,161.3-49.3,161.3-49.3s3.2,25,5.1,28.8c1.3,3.2,5.8,5.8,10.2,5.8h85.8c7,0,10.9-5.1,10.9-10.9l1.3-478.1
	C3220.6,265.6,3215.5,260.5,3208.4,260.5z M1691.6,259.8h-136.3c-5.8,0-10.9,5.8-10.9,12.8v469.8c0,12.8,8.3,17.3,19.2,17.3h122.9
	c12.8,0,16-5.8,16-17.3v-471v-0.6C1702.5,265,1697.4,259.8,1691.6,259.8z M1624.4,43.5c-49.3,0-88.3,39-88.3,88.3s39,88.3,88.3,88.3
	c48,0,87-39,87-88.3S1672.4,43.5,1624.4,43.5z M2679.8,27.5h-135c-5.8,0-10.9,5.1-10.9,10.9v261.8H2322V38.4
	c0-5.8-5.1-10.9-10.9-10.9h-136.3c-5.8,0-10.9,5.1-10.9,10.9v711c0,5.8,5.8,10.9,10.9,10.9h136.3c5.8,0,10.9-5.1,10.9-10.9v-304
	h211.8l-1.3,304c0,5.8,5.1,10.9,10.9,10.9h136.3c5.8,0,10.9-5.1,10.9-10.9v-711C2690.7,32.6,2685.6,27.5,2679.8,27.5z M1472.1,342.4
	v367.4c0,2.6-0.6,7-3.8,8.3c0,0-80,57-211.8,57c-159.4,0-348.2-49.9-348.2-378.9c0-329,165.1-396.8,326.4-396.2
	c139.5,0,195.8,31.4,204.8,37.1c2.6,3.2,3.8,5.8,3.8,9L1416.4,160c0,5.8-5.8,12.8-12.8,10.9c-23-7-57.6-21.1-138.9-21.1
	c-94.1,0-195.2,26.9-195.2,238.7s96,236.8,165.1,236.8c58.9,0,80-7,80-7V471h-94.1c-7,0-12.2-5.1-12.2-10.9V342.4
	c0-5.8,5.1-10.9,12.2-10.9H1460C1467,331.5,1472.1,336.6,1472.1,342.4z"/>
</svg>
