<?xml version="1.0" encoding="utf-8"?>
<!-- Generator: Adobe Illustrator 22.0.1, SVG Export Plug-In . SVG Version: 6.00 Build 0)  -->
<svg version="1.1" id="Layer_1" xmlns="http://www.w3.org/2000/svg" xmlns:xlink="http://www.w3.org/1999/xlink" x="0px" y="0px"
	 viewBox="0 0 407.7 56.1" style="enable-background:new 0 0 407.7 56.1;" xml:space="preserve">
<style type="text/css">
	.st0{fill:#6C6D6D;}
	.st1{fill:#2ABCEE;}
	.st2{fill:#E6218F;}
</style>
<path class="st0" d="M15.2,2.1h1c0.6,0.1,0.9,0.4,0.9,0.9v0.4c0,0.7-0.8,1-2.3,1c-3.3,0-5,1.4-5,4.3v0.1c0,1.6,0.7,5.4,2,11.1
	c0.1,0.6,0.1,1.2,0.1,1.8v0.6c0,2.7-1.1,5-3.2,6.7v0.1c2.1,1.4,3.1,3.8,3.1,7V37c0,1-0.3,4.2-1,9.5V47c0,2.1,1.4,3.2,4.1,3.2
	c1.4,0.5,2.1,1.5,2.1,2.7v0.4c0,1.2-0.7,2.1-2,2.6L14.7,56h-1c-3.4,0-6.1-1.4-8.1-4.1c-0.9-1.7-1.4-3.7-1.4-6.1
	c0-1.3,0.4-5,1.1-11.2c0-1.9-1.5-2.9-4.6-2.9C0.2,31.4,0,31.1,0,30.8v-0.6c0.3-0.5,0.6-0.7,1-0.7h0.6c2.9,0,4.8,1.3,5.7,3.8
	c0.1,0.7,0.2,1.3,0.2,1.6c-0.7,6-1.1,9.6-1.1,10.9c0,3.4,0.9,5.5,2.8,6.6c1.4,0.9,2.8,1.3,4.4,1.3h0.5c0.1,0,0.1,0,0.1,0.1
	c0.5-0.1,0.7-0.3,0.7-0.6c0-0.5-0.7-0.7-2.1-0.7c-1.7-0.6-2.8-1.3-3.2-2.2c-0.7-0.9-1-2-1-3.4v-0.2c0-0.4,0.3-3.4,1-8.9v-1.6
	c0-3.1-1-5.1-3.1-5.8c-1.1-0.3-1.7-0.8-1.7-1.4c0-0.7,0.7-1.2,2.1-1.6c1.8-1.2,2.7-2.9,2.7-5.2v-0.8c0-0.8-0.6-4.1-1.9-9.9
	c-0.1-1.1-0.2-2-0.2-2.8c0-2.9,1.2-4.9,3.5-5.9C12.4,2.3,13.7,2.1,15.2,2.1z"/>
<path class="st1" d="M37.3,11L37.3,11c0.8,0.1,1.1,0.5,1.1,1.1v29.1c0,5.4-1.8,9.7-5.4,12.7c-2.2,1.5-4.4,2.3-6.4,2.3h-0.4
	c-2.1-0.3-3.1-1.4-3.1-3.1v-0.7c0-1.5,1.3-2.5,4-3.1c2.4-1.3,3.5-3.6,3.5-6.8v-0.3c0-0.6,0.4-1,1.1-1.1h0.1c0.5,0,0.8,0.3,1,1v0.3
	c0,5-2.2,8.1-6.5,9.4c-0.6,0-1,0.3-1.2,0.9c0.1,0.9,0.5,1.4,1.3,1.4c1.2,0,2.9-0.5,5-1.6c3.2-2.6,4.8-6.3,4.8-11.3V12
	C36.4,11.3,36.7,11,37.3,11z M34.3,0.1H35c1.7,0,3.1,1.1,4,3.3C39,3.7,39,4,39,4.2v0.5c0,0.5-0.3,0.8-1,0.9c-0.8,0-1.2-0.7-1.2-2
	c-0.6-1-1.3-1.5-2.1-1.5c-1.6,0.3-2.3,1-2.3,2.2v0.2c0,1.4,0.9,2.2,2.7,2.4c0.4,0.2,0.7,0.5,0.7,1.1v0.1c0,0.5-0.4,0.8-1.1,0.9
	c-2,0-3.4-1.1-4.2-3.3c-0.1-0.2-0.1-0.5-0.1-0.9V4.5c0-2,1.1-3.3,3.2-4.2C33.6,0.2,33.9,0.1,34.3,0.1z"/>
<path class="st0" d="M56,13.8h1.3c3.3,0,6.3,1.3,8.7,4c1.3,1.9,2,3.8,2,5.7V25c0,6.8,0.1,12.2,0.2,16.1c0,1.1-0.8,1.9-2.4,2.4
	c-0.2,0-0.4,0.1-0.7,0.1h-0.4c-1.7,0-2.6-1-2.8-3c-0.3-8.7-0.5-13.1-0.8-13.1c-0.4-0.6-1.2-0.8-2.5-0.8c-5,0-8.6,1.6-10.9,4.9
	c-0.6,1.2-0.9,2.4-0.9,3.6v0.9c0,3.6,2.2,5.6,6.7,6.3c0.4,0,0.8,0,1.3,0.1c1.3,0,2.9-0.5,4.9-1.6c0.7,0.1,1,0.4,1,0.9
	c-0.1,1.1-1.8,1.9-5.2,2.5h-1.3c-3.9,0-6.8-1.6-8.6-4.7c-0.5-1.2-0.8-2.4-0.8-3.4v-1.2c0-3.9,2.3-6.9,6.9-9c2.2-0.8,4.5-1.3,6.9-1.3
	c2.4,0,3.9,0.9,4.5,2.7c0.2,0.6,0.4,5.2,0.8,14c0.3,0.3,0.5,0.4,0.7,0.4h0.6c0.8-0.1,1.2-0.4,1.2-0.8c-0.2-1.2-0.3-6.9-0.3-17.3
	c0-2.7-1.4-4.9-4.2-6.6c-1.8-0.8-3.5-1.3-5.1-1.3c-3.1,0-6,0.8-8.8,2.4l-0.3,0.1c-0.6-0.2-0.9-0.5-0.9-1.1c0-0.8,1.8-1.7,5.5-2.8
	C53.7,14,55,13.8,56,13.8z"/>
<path class="st1" d="M84.9,12.6h1.3c2.1,0,3.9,0.5,5.5,1.4c0.7,0.7,1.1,1.4,1.2,2.3v0.1c0,1.4-0.8,2.4-2.4,3
	c-0.3,0.1-0.5,0.1-0.8,0.1c-2.2-0.6-3.8-0.9-4.9-0.9c-2,0-3.1,0.9-3.4,2.8c-0.1,0.8-0.4,1.2-0.9,1.2h-0.5c-0.4-0.3-0.7-0.6-0.7-0.9
	v-0.1c0-2.2,1.2-3.7,3.7-4.7c0.7-0.2,1.3-0.2,1.9-0.2c1.1,0,2.7,0.3,5,0.9c0.4,0,0.7-0.3,0.9-0.9c0-0.8-1.1-1.4-3.4-1.7l-1.8-0.2
	c-4.5,0-7.3,1.6-8.6,4.7c-0.3,0.8-0.6,1.9-0.8,3.1c0,2.2,1.4,3.8,4.2,4.7c0.7,0.2,2.6,0.4,5.6,0.6c2.4,0.6,4.3,1.5,5.7,2.7
	c1.7,1.7,2.5,3.4,2.5,5.1v0.9c0,2.9-1.7,5.3-5,7.2c-1.8,0.8-3.5,1.3-5.2,1.3h-1.4c-3.7,0-6.2-1.4-7.6-4.3c-0.3-0.9-0.4-1.7-0.4-2.4
	v-0.1c0.1-0.8,0.4-1.2,0.9-1.2h0.5c0.4,0,0.7,0.6,0.7,1.8c0,0.8,0.5,1.7,1.4,2.8c1.4,0.9,3.1,1.4,5.2,1.4c4.3,0,7.2-1.7,8.6-5
	c0.2-0.6,0.3-1.2,0.3-1.8c0-2.8-1.7-4.7-5.2-5.9c-0.8-0.3-2.7-0.6-5.8-0.7C79,28.8,77.3,28.1,76,27c-1.3-1.4-1.9-2.9-1.9-4.2v-0.5
	c0-2.9,1.3-5.5,3.8-7.6C79.9,13.2,82.2,12.6,84.9,12.6z"/>
<path class="st1" d="M115,12.8h0.9c4.7,0,8.5,2.1,11.4,6.3c1.8,3.2,2.6,6.2,2.6,9.1v1.1c0,3.8-1.2,7.3-3.6,10.5
	c-2.8,3.3-6.6,5-11.2,5h-1.6c-3.6,0-6.9-1.7-10-5c-1.3-1.9-2.2-3.4-2.5-4.5v-0.5c0.2-0.4,0.5-0.7,0.9-0.7h0.2c0.5,0,1,0.7,1.5,2
	c0.4,1.1,1.5,2.4,3.4,4.1c2.3,1.7,4.7,2.6,7.1,2.6c6.3,0,10.4-2.4,12.5-7.3c0.9-2.6,1.4-4.9,1.4-6.7c0-3.4-1.1-6.7-3.3-9.8
	c-2.3-2.7-5.3-4-8.8-4h-0.6c-0.1,0-0.1,0-0.1-0.1l-0.2,0.1H115c-4.1,0-7.5,1.6-10.1,4.8c-1.9,2.8-2.9,5.9-2.9,9.1
	c0,1.3,0.6,1.9,1.8,1.9c1-0.1,1.5-0.6,1.5-1.4c0.1-1.7,0.5-3.8,1.3-6.3c1.8-4.1,4.6-6.2,8.6-6.2c4.3,0,7.3,2.4,8.8,7.1
	c0.5,1.9,0.8,3.6,0.8,5c-0.2,0.6-0.5,0.9-1.1,0.9c-0.7,0-1.1-0.7-1.1-2.2c-0.3-2.4-0.9-4.3-1.8-5.7c-1.4-2-3.2-3-5.6-3H115
	c-3.6,0-5.9,2.2-7.2,6.6c-0.3,1.4-0.5,3-0.6,4.8c-0.7,1.7-1.9,2.6-3.5,2.6c-1.7,0-2.9-0.9-3.5-2.6c-0.1-0.2-0.2-0.6-0.2-1.1v-0.8
	c0-3.5,1.1-6.8,3.3-9.9C106.3,14.7,110.3,12.8,115,12.8z"/>
<path class="st1" d="M151.3,12.5h1.1c4.9,0,8.3,2.5,10.2,7.6c0.4,1.5,0.6,2.7,0.6,3.6c0,9.5,0.1,16.3,0.1,20.3
	c0,0.4-0.3,0.6-0.8,0.8h-0.5c-0.1,0-0.4-0.2-0.7-0.6c-0.1-1.7-0.1-2.8-0.1-3.3c0-2.9,0-8.7-0.1-17.3c0-2.7-1.1-5.1-3.2-7.2
	c-1.6-1.2-3.4-1.8-5.4-1.8H152c0,0-0.1,0-0.1-0.1l-0.2,0.1h-0.6c-3,0-5.3,2-6.8,5.9c-0.5,2-0.8,3.6-0.8,4.9v14.8
	c0,2.2-0.8,3.7-2.5,4.3l-0.8,0.1h-0.8c-2,0-3.1-1.3-3.4-4c-0.1-14.4-0.2-23.4-0.2-27c0.3-0.4,0.6-0.6,0.9-0.6h0.2c0.7,0,1,0.7,1,2.2
	v0.8c0,2.1,0,10.3,0.1,24.8c0,1.1,0.5,1.7,1.6,1.7v0.1c1.1,0,1.7-0.7,1.7-2.1V25.7c0-5,1.6-8.9,4.9-11.7
	C148,13,149.7,12.5,151.3,12.5z"/>
<path class="st0" d="M173.1,15.9h0.6c1.6,0,2.9,1,3.8,3.1c0.1,0.4,0.2,0.7,0.2,1v0.7c-0.2,0.4-0.5,0.6-0.9,0.6h-0.2
	c-0.7,0-1.1-0.6-1.1-1.8c-0.5-1.1-1.2-1.6-2.1-1.6c-1.5,0.3-2.3,1-2.3,2.2v0.6c0,0.9,0.6,1.6,1.8,2.1c1,0,1.5,0.3,1.5,1
	c-0.1,0.7-0.4,1.1-0.9,1.1h-0.3c-1.8,0-3.2-1.1-4-3.4c-0.1-0.3-0.1-0.6-0.1-0.8v-0.6c0-1.7,1-2.9,3-3.9
	C172.5,15.9,172.8,15.9,173.1,15.9z M173.2,35.2h0.4c1.8,0,3.2,1.1,4,3.4c0.1,0.3,0.1,0.6,0.1,0.8v0.4c0,0.5-0.4,0.8-1.1,0.9
	c-0.7,0-1.1-0.6-1.1-1.9c-0.5-1-1.2-1.6-1.9-1.6h-0.4c-1,0-1.7,0.7-2,2.1V40c0,1.3,0.8,2,2.5,2.2c0.5,0.3,0.7,0.5,0.7,0.9v0.2
	c-0.1,0.6-0.4,0.9-0.9,0.9h-0.4c-1.6,0-2.9-1-3.8-3.1c-0.1-0.4-0.2-0.7-0.2-1v-0.6c0-1.9,1-3.2,3.1-4
	C172.6,35.3,172.9,35.2,173.2,35.2z"/>
<path class="st2" d="M186.7,0.1h0.8c1.8,0,2.9,1.1,3.3,3.4v40.3c-0.1,0.5-0.4,0.8-0.8,0.8h-0.3c-0.6-0.1-0.8-0.4-0.8-0.8V4.5
	c0-1.6-0.5-2.3-1.6-2.3c-1.1,0-1.7,0.8-1.7,2.3v39.4c-0.1,0.5-0.4,0.8-0.8,0.8h-0.4c-0.5-0.1-0.8-0.4-0.8-0.8V3.6
	C183.9,1.3,185,0.1,186.7,0.1z"/>
<path class="st2" d="M207.7,13.8h1.3c3.3,0,6.3,1.3,8.7,4c1.3,1.9,2,3.8,2,5.7V25c0,6.8,0.1,12.2,0.2,16.1c0,1.1-0.8,1.9-2.4,2.4
	c-0.2,0-0.4,0.1-0.7,0.1h-0.4c-1.7,0-2.6-1-2.8-3c-0.3-8.7-0.5-13.1-0.8-13.1c-0.4-0.6-1.2-0.8-2.5-0.8c-5,0-8.6,1.6-10.9,4.9
	c-0.6,1.2-0.9,2.4-0.9,3.6v0.9c0,3.6,2.2,5.6,6.7,6.3c0.4,0,0.8,0,1.3,0.1c1.3,0,2.9-0.5,4.9-1.6c0.7,0.1,1,0.4,1,0.9
	c-0.1,1.1-1.8,1.9-5.2,2.5H206c-3.9,0-6.8-1.6-8.6-4.7c-0.5-1.2-0.8-2.4-0.8-3.4v-1.2c0-3.9,2.3-6.9,6.9-9c2.2-0.8,4.5-1.3,6.9-1.3
	c2.4,0,3.9,0.9,4.5,2.7c0.2,0.6,0.4,5.2,0.8,14c0.3,0.3,0.5,0.4,0.7,0.4h0.6c0.8-0.1,1.2-0.4,1.2-0.8c-0.2-1.2-0.3-6.9-0.3-17.3
	c0-2.7-1.4-4.9-4.2-6.6c-1.8-0.8-3.5-1.3-5.1-1.3c-3.1,0-6,0.8-8.8,2.4l-0.3,0.1c-0.6-0.2-0.9-0.5-0.9-1.1c0-0.8,1.8-1.7,5.5-2.8
	C205.5,14,206.7,13.8,207.7,13.8z"/>
<path class="st2" d="M259.2,12.4h1.2c3.5,0,6.3,2,8.4,5.9c1.1,2.4,1.6,4.7,1.6,7.1v18.4c-0.1,0.6-0.4,0.8-0.8,0.8h-0.3
	c-0.6-0.1-0.8-0.4-0.8-0.8V28.2c0-6-1.2-10-3.7-11.9c-1.4-1.2-3.1-1.9-5-1.9c-3,0-5.1,1-6.4,3c-1,2-1.4,4.1-1.4,6.3v17
	c0,1.9-0.7,3.2-2.2,3.8c-0.3,0.2-0.7,0.3-1.3,0.3h-0.6c-1.5,0-2.6-0.9-3.2-2.8c-0.1-0.5-0.1-0.9-0.1-1.2V26.1
	c0-6.1-1.3-9.8-3.8-11.2c-0.5-0.1-0.9-0.2-1.1-0.2h-0.4c-1.8,0-3.2,1.1-4.3,3.3c-1,2.3-1.4,5-1.4,8.3v14.7c0,1.7-0.9,2.8-2.6,3.5
	c-0.2,0.1-0.5,0.1-0.7,0.1h-0.7c-2,0-3.1-1.3-3.4-3.8c-0.1-15-0.2-24.1-0.2-27.2c0.3-0.4,0.6-0.6,0.9-0.6h0.2c0.3,0,0.6,0.2,0.9,0.7
	c0,0.3,0,1.1,0.1,2.6c0,2.2,0,10.4,0.1,24.7c0.1,1.1,0.7,1.7,1.6,1.7c1.1-0.1,1.6-0.6,1.6-1.5V26.6c0-6.7,1.6-11,4.8-13
	c1.2-0.6,2.2-0.9,3-0.9h0.6c2.8,0,4.9,2.2,6.2,6.5c0.5,2,0.8,4.4,0.8,7.1v14.6c0,1.2,0.5,1.8,1.5,1.8c1.1,0,1.6-0.6,1.6-1.9V23.8
	c0-5.1,1.7-8.7,5-10.5C256.6,12.7,258,12.4,259.2,12.4z"/>
<path class="st2" d="M277.1,0h0.5c0.5,0,0.9,0.4,0.9,1.2v6.4c0,8.1,0,19.4-0.1,34c0,0.1-0.1,0.2-0.1,0.3c0.2,0.9,0.6,1.3,1.3,1.3
	c0.7-0.1,1.1-0.4,1.1-1c-0.2-6.6-0.4-10.4-0.4-11.4v-2c0-7.1,1.6-11.6,4.7-13.4c2.2-1.5,4.6-2.3,7.4-2.3h0.7c5.3,0,9.3,2.9,11.9,8.6
	c0.8,2.4,1.3,4.7,1.3,6.9v1.5c0,4.9-1.9,9.2-5.7,12.9c-2.8,2-5.4,3-8,3h-1.4c-2.4,0-4.7-0.8-7-2.4c-0.3-0.3-0.4-0.6-0.4-0.9
	c0.2-0.6,0.5-0.9,0.9-0.9h0.2c0.1,0,0.8,0.4,2,1.1c1.5,0.7,2.9,1,4.3,1h0.3c0.1,0,0.3,0,0.4,0.1c0.1,0,0.2-0.1,0.3-0.1h0.4
	c2.8,0,5.4-1.2,7.9-3.8c2.4-3.1,3.7-6.5,3.7-10.1v-0.5c0-0.1,0-0.2,0.1-0.3c-0.1-0.1-0.1-0.2-0.1-0.4v-0.4c0-4.4-1.6-8-4.7-10.9
	c-2-1.5-4-2.2-6.2-2.2h-0.9c-3,0-5.6,1.1-7.6,3.2c-1.5,1.9-2.3,5.3-2.3,10.3v2.2c0,1,0.1,4.7,0.4,11.4c0,1.3-0.8,2.2-2.3,2.8l-1,0.2
	c-1.5,0-2.6-0.8-3.2-2.5c0-0.1,0-0.3-0.1-0.4c0.1-11.5,0.1-20.7,0.1-27.5V0.9C276.4,0.6,276.6,0.3,277.1,0z"/>
<path class="st2" d="M325.7,13.4h1.3c4.3,0,7.7,2,10.1,6c1.2,2.2,1.8,4.8,1.8,7.9v1.1c0,1.3-0.9,2.1-2.7,2.4H320
	c-1.9-0.2-2.9-1.2-2.9-2.8c0.3-1.9,1.2-2.8,2.8-2.8h13.2c0.4,0,0.7,0.3,0.9,0.9v0.2c0,0.4-0.3,0.7-1,0.9h-13c-0.6,0-0.9,0.3-0.9,0.8
	c0,0.5,0.3,0.8,0.8,0.8h16.3c0.5,0,0.7-0.2,0.7-0.6v-1c0-5.5-2.1-9.2-6.2-11.1c-1.3-0.5-2.5-0.7-3.6-0.7h-0.4c-0.1,0-0.2,0-0.3-0.1
	c-0.1,0.1-0.2,0.1-0.3,0.1h-0.2c-4.8,0-8.3,2.7-10.6,8c-0.6,2.2-1,4.2-1,6c0,6.4,2.9,10.7,8.7,12.9c1.8,0.5,3.3,0.7,4.5,0.7
	c2.7,0,5.7-0.8,8.9-2.3h0.1c0.6,0.2,1,0.5,1,1v0.1c0,1-2.4,2-7.3,3c-0.6,0.1-1.3,0.1-2,0.1h-1.4c-3.6,0-7-1.4-10.2-4.2
	c-2.9-3-4.3-6.5-4.3-10.5v-1.5c0-4.6,1.6-8.5,4.7-11.7C319.5,14.6,322.5,13.4,325.7,13.4z"/>
<path class="st2" d="M359.2,12.2h0.8c1.3,0,2,0.3,2,1v0.3c0,0.4-0.3,0.7-0.8,1l-1.7-0.2c-2.1,0-3.8,0.8-5,2.3
	c-1.2,2.2-1.8,5.8-1.8,10.7v13.4c0,1.8-0.6,3.1-1.9,3.8c-0.5,0.3-1,0.4-1.6,0.4h-0.8c-1.6,0-2.7-1-3.4-2.9c-0.1-0.7-0.1-1.1-0.1-1.1
	c-0.1-14.6-0.2-23.8-0.2-27.5c0.3-0.4,0.6-0.6,0.9-0.6h0.2c0.7,0,1.1,0.6,1.1,1.9v0.4c0,2.2,0.1,10.9,0.2,25.9
	c0,1.2,0.5,1.7,1.6,1.7v0.1c1.2,0,1.7-0.7,1.7-2.2V27.5c0-7.3,1.2-11.8,3.5-13.6C355.7,12.8,357.4,12.2,359.2,12.2z"/>
<path class="st2" d="M368.6,2.6h0.6c0.6,0,1,0.4,1.1,1.3v28.4c0,0.2,0,0.5-0.1,0.8c0.3,4.6,1.7,7.4,4.2,8.5c1,0.5,2.1,0.7,3.4,0.7
	c2.7,0,4.1-0.5,4.1-1.6c0-0.8-0.3-1.1-0.8-1.1c-1.3,0.1-2.2,0.1-2.8,0.1c-1.6,0-2.8-1-3.8-3c-0.4-1.1-0.7-2.5-0.7-4.1V14.2
	c0-0.6,0.4-0.9,1.3-1h8.2c0.9,0.1,1.3,0.4,1.3,1v0.6c-0.3,0.5-0.6,0.8-1.1,0.8h-7.5v17.1c0,3.1,0.8,4.7,2.3,4.7c0.5,0,1.4,0,2.6-0.1
	c1.9,0,3,1.2,3.2,3.6c0,2.1-1.5,3.3-4.5,3.7c-0.4,0.1-0.9,0.1-1.5,0.1h-1c-4.3,0-7.3-2.5-8.9-7.4c-0.3-1.4-0.5-2.6-0.5-3.8V3.6
	C367.9,3.2,368.1,2.9,368.6,2.6z"/>
<path class="st0" d="M393,2.1h1c3.4,0,6.1,1.4,8.1,4.1c0.9,1.7,1.4,3.7,1.4,6.1c0,1.3-0.4,5-1.1,11.3c0,1.9,1.5,2.9,4.6,2.9
	c0.4,0.3,0.6,0.6,0.6,0.9v0.6c-0.3,0.5-0.6,0.8-1,0.8H406c-2.9,0-4.7-1.3-5.7-3.8c-0.1-0.7-0.2-1.3-0.2-1.6c0.8-6,1.1-9.6,1.1-11
	c0-3.3-0.9-5.5-2.8-6.5c-1.4-0.9-2.9-1.3-4.4-1.3h-0.5c-0.1,0-0.1,0-0.1-0.1c-0.5,0.1-0.7,0.3-0.7,0.6c0,0.5,0.7,0.8,2.1,0.8
	c1.7,0.6,2.8,1.3,3.2,2.1c0.7,0.9,1,2,1,3.4v0.2c0,0.4-0.3,3.4-1,8.9v1.6c0,3.1,1,5.1,3.1,5.8c1.1,0.3,1.7,0.8,1.7,1.4
	c0,0.7-0.7,1.2-2.2,1.6c-1.8,1.2-2.7,2.9-2.7,5.2v0.8c0,0.8,0.6,4.1,1.9,9.9c0.1,1.1,0.2,2.1,0.2,2.8c0,2.9-1.2,4.9-3.5,5.9
	c-1.2,0.5-2.5,0.8-4,0.8h-1c-0.6-0.1-0.9-0.4-0.9-0.9v-0.4c0-0.7,0.8-1,2.3-1c3.3,0,5-1.4,5-4.3v-0.1c0-1.6-0.7-5.4-2-11.1
	c-0.1-0.6-0.1-1.2-0.1-1.8v-0.6c0-2.7,1.1-5,3.2-6.7V29c-2.1-1.4-3.1-3.8-3.1-7v-0.9c0-1,0.3-4.1,1-9.5v-0.6c0-2.1-1.4-3.2-4.1-3.2
	c-1.4-0.5-2.2-1.4-2.2-2.7V4.8c0-1.2,0.7-2.1,2-2.6L393,2.1z"/>
</svg>
