<?xml version="1.0" encoding="utf-8"?>
<!-- Generator: Adobe Illustrator 22.0.1, SVG Export Plug-In . SVG Version: 6.00 Build 0)  -->
<svg version="1.1" id="Layer_1" xmlns="http://www.w3.org/2000/svg" xmlns:xlink="http://www.w3.org/1999/xlink" x="0px" y="0px"
	 viewBox="0 0 56.1 56.1" style="enable-background:new 0 0 56.1 56.1;" xml:space="preserve">
<style type="text/css">
	.st0{fill:#2EBCEE;}
	.st1{fill:#6D6E6E;}
	.st2{fill:#E5258F;}
</style>
<path class="st0" d="M20.5,10.9L20.5,10.9c0.8,0.1,1.1,0.5,1.1,1.1v29.1c0,5.4-1.8,9.7-5.4,12.7c-2.2,1.5-4.4,2.3-6.4,2.3H9.4
	c-2.1-0.3-3.1-1.4-3.1-3.1v-0.7c0-1.5,1.3-2.5,4-3.1c2.4-1.3,3.5-3.6,3.5-6.8v-0.3c0-0.6,0.4-1,1.1-1.1H15c0.5,0,0.8,0.3,1,1v0.3
	c0,5-2.2,8.1-6.5,9.4c-0.6,0-1,0.3-1.2,0.9C8.4,53.5,8.8,54,9.6,54c1.2,0,2.9-0.5,5-1.6c3.2-2.6,4.8-6.3,4.8-11.3V11.9
	C19.6,11.2,19.9,10.9,20.5,10.9z M17.5,0h0.7c1.7,0,3.1,1.1,4,3.3c0,0.3,0,0.6,0,0.8v0.5c0,0.5-0.3,0.8-1,0.9c-0.8,0-1.2-0.7-1.2-2
	c-0.6-1-1.3-1.5-2.1-1.5c-1.6,0.3-2.3,1-2.3,2.2v0.2c0,1.4,0.9,2.2,2.7,2.4C18.7,7,19,7.3,19,7.9V8c0,0.5-0.4,0.8-1.1,0.9
	c-2,0-3.4-1.1-4.2-3.3c-0.1-0.2-0.1-0.5-0.1-0.9V4.4c0-2,1.1-3.3,3.2-4.2C16.8,0.1,17.1,0,17.5,0z"/>
<path class="st1" d="M32.1,15.8h0.6c1.6,0,2.9,1,3.8,3.1c0.1,0.4,0.2,0.7,0.2,1v0.7c-0.2,0.4-0.5,0.6-0.9,0.6h-0.2
	c-0.7,0-1.1-0.6-1.1-1.8c-0.5-1.1-1.2-1.6-2.1-1.6c-1.5,0.3-2.3,1-2.3,2.2v0.6c0,0.9,0.6,1.6,1.8,2.1c1,0,1.5,0.3,1.5,1
	c-0.1,0.7-0.4,1.1-0.9,1.1h-0.3c-1.8,0-3.2-1.1-4-3.4c-0.1-0.3-0.1-0.6-0.1-0.8V20c0-1.7,1-2.9,3-3.9C31.5,15.8,31.8,15.8,32.1,15.8
	z M32.2,35.1h0.4c1.8,0,3.2,1.1,4,3.4c0.1,0.3,0.1,0.6,0.1,0.8v0.4c0,0.5-0.4,0.8-1.1,0.9c-0.7,0-1.1-0.6-1.1-1.9
	c-0.5-1-1.2-1.6-1.9-1.6h-0.4c-1,0-1.7,0.7-2,2.1v0.7c0,1.3,0.8,2,2.5,2.2c0.5,0.3,0.7,0.5,0.7,0.9v0.2c-0.1,0.6-0.4,0.9-0.9,0.9
	h-0.4c-1.6,0-2.9-1-3.8-3.1c-0.1-0.4-0.2-0.7-0.2-1v-0.6c0-1.9,1-3.2,3.1-4C31.6,35.2,31.9,35.1,32.2,35.1z"/>
<path class="st2" d="M45.7,0h0.8c1.8,0,2.9,1.1,3.3,3.4v40.3c-0.1,0.5-0.4,0.8-0.8,0.8h-0.3c-0.6-0.1-0.8-0.4-0.8-0.8V4.4
	c0-1.6-0.5-2.3-1.6-2.3s-1.7,0.8-1.7,2.3v39.4c-0.1,0.5-0.4,0.8-0.8,0.8h-0.4c-0.5-0.1-0.8-0.4-0.8-0.8V3.5C42.9,1.2,44,0,45.7,0z"
	/>
</svg>
