<?xml version="1.0" encoding="utf-8"?>
<!-- Generator: Adobe Illustrator 22.0.1, SVG Export Plug-In . SVG Version: 6.00 Build 0)  -->
<svg version="1.1" id="Layer_1" xmlns="http://www.w3.org/2000/svg" xmlns:xlink="http://www.w3.org/1999/xlink" x="0px" y="0px"
	 viewBox="0 0 350.3 266.2" style="enable-background:new 0 0 350.3 266.2;" xml:space="preserve">
<style type="text/css">
	.st0{fill:#801437;stroke:#C72D42;stroke-width:5;stroke-miterlimit:10;}
	.st1{fill:none;stroke:#2C152B;stroke-width:5;stroke-miterlimit:10;}
	.st2{fill:none;stroke:#C72D42;stroke-width:5;stroke-miterlimit:10;}
	.st3{fill:none;stroke:#EE4540;stroke-width:5;stroke-miterlimit:10;}
</style>
<path class="st0" d="M337.7,103.1c-6.6-6.6-15-10.1-24.4-10.1h-42.4c-9.4,0-17.8,3.5-24.4,10.1c-1.6,1.6-3,3.3-4.2,5.1
	c-1.2-1.7-2.5-3.4-4.1-4.9c-6.6-6.6-15-10.1-24.4-10.1H171c-6.8,0-13.1,1.8-18.5,5.3V29.7c0-15.8-11.4-27.2-27.2-27.2h-1.2
	c-15.8,0-27.2,11.5-27.2,27.2v68C91.7,94.6,85.8,93,79.6,93H57.9V29.7c0-15.8-11.4-27.2-27.2-27.2h-1C13.9,2.5,2.5,13.9,2.5,29.7
	v151.7c0,9.2,3.5,17.6,10.1,24.1c6.6,6.6,14.9,10.1,24.1,10.1h42.9c8.8,0,16.9-3.2,23.3-9.3c4.9,5.9,12.4,9.6,21.2,9.6h1.2
	c9,0,16.6-3.8,21.5-9.9c6.6,6.5,14.9,9.9,24.2,9.9h42.9c9.4,0,17.8-3.5,24.4-10.1c1.6-1.6,3-3.3,4.2-5.1c1.2,1.7,2.5,3.3,4.1,4.9
	c2.2,2.2,4.5,4,7.1,5.5c-10.3,3.8-17.2,13.3-17.2,25.5c0,15.8,11.4,27.2,27.2,27.2H322c14.9,0,25.8-11.3,25.8-27V127.5
	C347.8,118.1,344.3,109.7,337.7,103.1z"/>
<path class="st1" d="M22,30c0-4.8,2.4-7.2,7.2-7.2h1c4.8,0,7.2,2.4,7.2,7.2v83.3H79c3.9,0,7.2,1.4,10,4.2c2.8,2.8,4.2,6.1,4.2,10
	v54.2c0,3.9-1.4,7.2-4.2,10c-2.8,2.8-6.1,4.2-10,4.2H36.2c-3.9,0-7.2-1.4-10-4.2c-2.8-2.8-4.2-6.1-4.2-10V30z"/>
<path class="st2" d="M61.7,144.8c1.9,2.1,4.4,3.1,7.5,3.1c3,0,5.5-1,7.5-3.1c1.9-2.1,2.9-4.7,2.9-7.7c0-3-1-5.6-2.9-7.7
	c-1.9-2.1-4.4-3.1-7.5-3.1c-3.1,0-5.5,1-7.5,3.1c-1.9,2.1-2.9,4.7-2.9,7.7C58.8,140.2,59.8,142.7,61.7,144.8z"/>
<path class="st3" d="M123.6,22.8h1.2c4.8,0,7.2,2.4,7.2,7.2v158.9c0,4.8-2.4,7.2-7.2,7.2h-1.2c-4.8,0-7.2-2.4-7.2-7.2V30
	C116.3,25.2,118.7,22.8,123.6,22.8z"/>
<path class="st1" d="M227.8,181.7c0,4-1.4,7.4-4.2,10.2c-2.8,2.8-6.2,4.2-10.2,4.2h-42.9c-4,0-7.4-1.4-10.2-4.2
	c-2.8-2.8-4.2-6.2-4.2-10.2V128c0-4,1.4-7.4,4.2-10.2c2.8-2.8,6.2-4.2,10.2-4.2h42.9c4,0,7.4,1.4,10.2,4.2c2.8,2.8,4.2,6.2,4.2,10.2
	V181.7z"/>
<path class="st2" d="M189.3,139.3c0-3-1-5.7-3-7.8c-2-2.2-4.5-3.3-7.3-3.3c-2.9,0-5.3,1.1-7.3,3.3c-2,2.2-3,4.8-3,7.8
	c0,2.9,1,5.4,3,7.6c2,2.2,4.5,3.3,7.3,3.3c2.9,0,5.3-1.1,7.3-3.3C188.3,144.7,189.3,142.2,189.3,139.3z"/>
<path class="st1" d="M327.2,237c0,4.7-1.9,7-5.8,7h-58.3c-4.8,0-7.2-2.4-7.2-7.2c0-4.8,2.4-7.2,7.2-7.2h49.1v-33.7h-41.9
	c-4,0-7.4-1.4-10.2-4.2c-2.8-2.8-4.2-6.2-4.2-10.2v-53.7c0-4,1.4-7.4,4.2-10.2c2.8-2.8,6.2-4.2,10.2-4.2h42.4c4,0,7.4,1.4,10.2,4.2
	c2.8,2.8,4.2,6.2,4.2,10.2V237z"/>
<path class="st2" d="M268.8,146.2c2,2.2,4.5,3.3,7.3,3.3c2.9,0,5.3-1.1,7.3-3.3c2-2.2,3-4.7,3-7.6c0-2.9-1-5.4-3-7.6
	c-2-2.2-4.5-3.3-7.3-3.3c-2.9,0-5.3,1.1-7.3,3.3c-2,2.2-3,4.7-3,7.6C265.8,141.5,266.8,144,268.8,146.2z"/>
</svg>
