<svg xmlns="http://www.w3.org/2000/svg" width="954.72" height="516.99" viewBox="0 0 954.72 516.99">
  <defs>
    <style>
      .a {
        fill: #fff;
      }

      .b, .g, .j {
        fill: none;
      }

      .b, .c {
        stroke: #fcee21;
        stroke-linejoin: round;
        stroke-width: 6px;
      }

      .c, .f {
        fill: #fcee21;
      }

      .d {
        isolation: isolate;
      }

      .e, .k {
        fill: #010101;
      }

      .g {
        stroke: #818181;
        stroke-width: 4px;
        stroke-dasharray: 2 2;
      }

      .g, .k {
        stroke-miterlimit: 10;
      }

      .h {
        fill: #818181;
      }

      .i {
        fill: #333;
      }

      .k {
        stroke: #eb0d8c;
        stroke-width: 3px;
      }

      .l {
        fill: #fcee23;
      }
    </style>
  </defs>
  <title>vinyl-view-chart</title>
  <rect class="a" width="954.72" height="516.99"/>
  <rect class="b" x="129.12" y="192.58" width="578.87" height="272.2" rx="12" ry="12"/>
  <g>
    <rect class="c" x="766.78" y="243.7" width="143.06" height="59.75" rx="12" ry="12"/>
    <g class="d">
      <path class="e" d="M808.93,277.87v-10.1h-3.77v-1.35h9.08v1.35h-3.79v10.1Z"/>
      <path class="e" d="M820.45,277.87v-1.22a3,3,0,0,1-2.63,1.41,3.46,3.46,0,0,1-1.37-.28,2.33,2.33,0,0,1-1-.71,2.65,2.65,0,0,1-.43-1,6.94,6.94,0,0,1-.09-1.32v-5.14h1.4v4.6a7.9,7.9,0,0,0,.09,1.49,1.45,1.45,0,0,0,.56.87,1.75,1.75,0,0,0,1.06.32,2.3,2.3,0,0,0,1.19-.33,1.75,1.75,0,0,0,.78-.88,4.25,4.25,0,0,0,.24-1.62v-4.45h1.4v8.3Z"/>
      <path class="e" d="M823.9,277.87v-8.3h1.27v1.26a3.32,3.32,0,0,1,.89-1.16,1.52,1.52,0,0,1,.9-.28,2.76,2.76,0,0,1,1.45.45l-.49,1.3a2,2,0,0,0-1-.3,1.32,1.32,0,0,0-.83.28,1.47,1.47,0,0,0-.52.77,5.33,5.33,0,0,0-.23,1.64v4.34Z"/>
      <path class="e" d="M829.24,277.87v-8.3h1.27v1.18a3,3,0,0,1,2.64-1.36,3.47,3.47,0,0,1,1.38.27,2.1,2.1,0,0,1,.94.7,2.8,2.8,0,0,1,.44,1,8.59,8.59,0,0,1,.07,1.37v5.1h-1.4v-5.05a3.71,3.71,0,0,0-.17-1.28,1.28,1.28,0,0,0-.58-.68,1.84,1.84,0,0,0-1-.26,2.28,2.28,0,0,0-1.55.57,2.85,2.85,0,0,0-.65,2.17v4.53Z"/>
      <path class="e" d="M841.21,276.61l.2,1.24a4.77,4.77,0,0,1-1.06.13,2.46,2.46,0,0,1-1.19-.24,1.4,1.4,0,0,1-.59-.64,5.19,5.19,0,0,1-.17-1.66v-4.77h-1v-1.1h1v-2.05l1.4-.85v2.9h1.41v1.1H839.8v4.85a2.44,2.44,0,0,0,.07.77.6.6,0,0,0,.24.28,1.07,1.07,0,0,0,.48.1A4.11,4.11,0,0,0,841.21,276.61Z"/>
      <path class="e" d="M848,276.85a5.49,5.49,0,0,1-1.5.94,4.43,4.43,0,0,1-1.55.27,3.05,3.05,0,0,1-2.11-.67,2.36,2.36,0,0,1-.45-2.82,2.18,2.18,0,0,1,.72-.81,3.39,3.39,0,0,1,1-.46,10.84,10.84,0,0,1,1.25-.21,13.79,13.79,0,0,0,2.5-.48c0-.2,0-.32,0-.37a1.52,1.52,0,0,0-.4-1.21,2.34,2.34,0,0,0-1.6-.48,2.47,2.47,0,0,0-1.46.35,2.08,2.08,0,0,0-.7,1.23l-1.38-.19a3.49,3.49,0,0,1,.62-1.43,2.69,2.69,0,0,1,1.24-.83,5.42,5.42,0,0,1,1.88-.29,4.91,4.91,0,0,1,1.73.25,2.19,2.19,0,0,1,1,.63,2.13,2.13,0,0,1,.43,1,7.29,7.29,0,0,1,.08,1.3v1.87a17.88,17.88,0,0,0,.09,2.48,2.85,2.85,0,0,0,.35,1h-1.47A3.05,3.05,0,0,1,848,276.85Zm-.12-3.14a11,11,0,0,1-2.29.53,4.9,4.9,0,0,0-1.23.28,1.19,1.19,0,0,0-.55.46,1.12,1.12,0,0,0-.2.66,1.18,1.18,0,0,0,.43.94,1.8,1.8,0,0,0,1.24.38,2.89,2.89,0,0,0,1.45-.36,2.23,2.23,0,0,0,.93-1,3.46,3.46,0,0,0,.22-1.41Z"/>
      <path class="e" d="M852.78,277.87h-1.3V266.42h1.4v4.08a2.81,2.81,0,0,1,2.28-1.11,3.44,3.44,0,0,1,1.45.31,2.9,2.9,0,0,1,1.12.86,4.09,4.09,0,0,1,.69,1.35,5.48,5.48,0,0,1,.25,1.69,4.73,4.73,0,0,1-1,3.29,3.31,3.31,0,0,1-2.53,1.17,2.65,2.65,0,0,1-2.31-1.23Zm0-4.21a4.35,4.35,0,0,0,.4,2.16,2,2,0,0,0,3.39.28,3.62,3.62,0,0,0,.67-2.39,3.67,3.67,0,0,0-.64-2.39,2,2,0,0,0-1.56-.78,2,2,0,0,0-1.59.8A3.53,3.53,0,0,0,852.77,273.66Z"/>
      <path class="e" d="M860.35,277.87V266.42h1.41v11.45Z"/>
      <path class="e" d="M869.62,275.2l1.45.18a3.55,3.55,0,0,1-1.27,2,3.89,3.89,0,0,1-2.38.7,3.81,3.81,0,0,1-2.88-1.12,4.36,4.36,0,0,1-1.07-3.15,4.59,4.59,0,0,1,1.08-3.25,3.64,3.64,0,0,1,2.79-1.15,3.53,3.53,0,0,1,2.72,1.13,4.47,4.47,0,0,1,1.06,3.19c0,.08,0,.2,0,.37h-6.19a3.18,3.18,0,0,0,.78,2.1,2.3,2.3,0,0,0,1.73.72,2.13,2.13,0,0,0,1.32-.4A2.8,2.8,0,0,0,869.62,275.2ZM865,272.93h4.63a2.77,2.77,0,0,0-.53-1.57,2.14,2.14,0,0,0-1.74-.82,2.24,2.24,0,0,0-1.63.65A2.58,2.58,0,0,0,865,272.93Z"/>
    </g>
  </g>
  <g>
    <path class="f" d="M619.77,139.76a23.9,23.9,0,0,0,5.41-47.18,43.79,43.79,0,0,0-82.12-20.75,18.67,18.67,0,0,0-25.89,14.69,26.88,26.88,0,0,0,5.26,53.24Z"/>
    <g class="d">
      <path class="e" d="M505.41,116.37V104.91h2.28L510.4,113c.25.76.43,1.32.55,1.7.13-.42.33-1,.61-1.84l2.74-8h2v11.46h-1.46v-9.59l-3.33,9.59h-1.37l-3.31-9.75v9.75Z"/>
      <path class="e" d="M524,116.37v-1.22a3,3,0,0,1-2.63,1.41,3.3,3.3,0,0,1-1.37-.29,2.23,2.23,0,0,1-.95-.7,2.56,2.56,0,0,1-.43-1,6.74,6.74,0,0,1-.09-1.31v-5.14H520v4.6a9.26,9.26,0,0,0,.08,1.49,1.46,1.46,0,0,0,.57.87,1.73,1.73,0,0,0,1.06.31,2.29,2.29,0,0,0,1.19-.32,1.79,1.79,0,0,0,.78-.88,4.53,4.53,0,0,0,.23-1.62v-4.45h1.41v8.3Z"/>
      <path class="e" d="M526.94,113.89l1.39-.22A1.91,1.91,0,0,0,529,115a2.28,2.28,0,0,0,1.5.45,2.14,2.14,0,0,0,1.43-.4,1.15,1.15,0,0,0,.47-.92.84.84,0,0,0-.41-.75,5.62,5.62,0,0,0-1.44-.48,13.23,13.23,0,0,1-2.14-.67,2.14,2.14,0,0,1-.91-.79,2.16,2.16,0,0,1-.05-2.14,2.28,2.28,0,0,1,.69-.79,3,3,0,0,1,.89-.41,4.39,4.39,0,0,1,1.22-.17,4.94,4.94,0,0,1,1.71.28,2.3,2.3,0,0,1,1.09.77,2.93,2.93,0,0,1,.49,1.28l-1.38.19a1.48,1.48,0,0,0-.54-1,2,2,0,0,0-1.27-.36,2.29,2.29,0,0,0-1.38.32.92.92,0,0,0-.42.75.79.79,0,0,0,.17.49,1.33,1.33,0,0,0,.54.38l1.24.36a16.6,16.6,0,0,1,2.09.65,2.05,2.05,0,0,1,.92.74,2,2,0,0,1,.34,1.2,2.36,2.36,0,0,1-.41,1.32,2.63,2.63,0,0,1-1.19,1,4.37,4.37,0,0,1-1.75.34,3.9,3.9,0,0,1-2.46-.68A3,3,0,0,1,526.94,113.89Z"/>
      <path class="e" d="M535.51,116.37v-8.3h1.41v8.3Zm0-9.84v-1.62h1.41v1.62Z"/>
      <path class="e" d="M544.47,113.33l1.38.18a3.61,3.61,0,0,1-1.16,2.24,3.36,3.36,0,0,1-2.29.81,3.57,3.57,0,0,1-2.74-1.12,4.5,4.5,0,0,1-1-3.19,5.73,5.73,0,0,1,.44-2.35,3.09,3.09,0,0,1,1.36-1.51,4,4,0,0,1,2-.51,3.41,3.41,0,0,1,2.21.69,3.12,3.12,0,0,1,1.1,1.94l-1.37.21a2.26,2.26,0,0,0-.69-1.26,1.79,1.79,0,0,0-1.2-.42,2.19,2.19,0,0,0-1.73.76,3.63,3.63,0,0,0-.66,2.41,3.7,3.7,0,0,0,.64,2.43,2.08,2.08,0,0,0,1.67.76,2,2,0,0,0,1.39-.51A2.53,2.53,0,0,0,544.47,113.33Z"/>
      <path class="e" d="M551.7,116.37V104.92h5.08a7,7,0,0,1,2.33.3,2.54,2.54,0,0,1,1.27,1.09,3.24,3.24,0,0,1,.48,1.73,2.89,2.89,0,0,1-.79,2.06,4,4,0,0,1-2.44,1.06,3.87,3.87,0,0,1,.92.57,7.89,7.89,0,0,1,1.26,1.52l2,3.12h-1.91L558.38,114c-.45-.69-.81-1.22-1.1-1.58a3.25,3.25,0,0,0-.77-.77,2.33,2.33,0,0,0-.69-.3,4.11,4.11,0,0,0-.84-.06h-1.76v5.09Zm1.52-6.4h3.26a5,5,0,0,0,1.62-.21,1.78,1.78,0,0,0,.89-.69,1.83,1.83,0,0,0,.31-1,1.73,1.73,0,0,0-.59-1.34,2.83,2.83,0,0,0-1.86-.52h-3.63Z"/>
      <path class="e" d="M568.73,113.7l1.46.18a3.54,3.54,0,0,1-1.28,2,4.3,4.3,0,0,1-5.26-.41,4.4,4.4,0,0,1-1.06-3.15,4.59,4.59,0,0,1,1.08-3.25,3.64,3.64,0,0,1,2.79-1.16,3.53,3.53,0,0,1,2.72,1.14,4.48,4.48,0,0,1,1.05,3.18v.38H564a3.18,3.18,0,0,0,.77,2.09,2.3,2.3,0,0,0,1.74.73,2.18,2.18,0,0,0,1.32-.41A2.69,2.69,0,0,0,568.73,113.7Zm-4.61-2.28h4.63a2.83,2.83,0,0,0-.53-1.57,2.16,2.16,0,0,0-1.74-.81,2.24,2.24,0,0,0-1.63.65A2.53,2.53,0,0,0,564.12,111.42Z"/>
      <path class="e" d="M577.37,113.33l1.38.18a3.61,3.61,0,0,1-1.16,2.24,3.38,3.38,0,0,1-2.29.81,3.54,3.54,0,0,1-2.74-1.12,4.5,4.5,0,0,1-1-3.19,5.73,5.73,0,0,1,.45-2.35,3.09,3.09,0,0,1,1.36-1.51,4,4,0,0,1,2-.51,3.43,3.43,0,0,1,2.21.69,3.12,3.12,0,0,1,1.1,1.94l-1.37.21a2.26,2.26,0,0,0-.69-1.26,1.79,1.79,0,0,0-1.2-.42,2.19,2.19,0,0,0-1.73.76,3.63,3.63,0,0,0-.66,2.41,3.7,3.7,0,0,0,.64,2.43,2.07,2.07,0,0,0,1.67.76,2,2,0,0,0,1.38-.51A2.53,2.53,0,0,0,577.37,113.33Z"/>
      <path class="e" d="M579.43,112.22a4.28,4.28,0,0,1,1.28-3.41,3.86,3.86,0,0,1,2.61-.93,3.74,3.74,0,0,1,2.8,1.13,4.26,4.26,0,0,1,1.08,3.09,5.48,5.48,0,0,1-.48,2.52,3.33,3.33,0,0,1-1.4,1.43,4,4,0,0,1-2,.51,3.77,3.77,0,0,1-2.82-1.12A4.5,4.5,0,0,1,579.43,112.22Zm1.45,0a3.57,3.57,0,0,0,.69,2.39,2.31,2.31,0,0,0,3.49,0,3.58,3.58,0,0,0,.7-2.43,3.47,3.47,0,0,0-.7-2.33,2.32,2.32,0,0,0-3.49,0A3.52,3.52,0,0,0,580.88,112.22Z"/>
      <path class="e" d="M588.59,117.06l1.37.2a1.31,1.31,0,0,0,.48.92,2.34,2.34,0,0,0,1.43.39,2.54,2.54,0,0,0,1.51-.39,1.89,1.89,0,0,0,.71-1.09,8.69,8.69,0,0,0,.11-1.81,2.89,2.89,0,0,1-2.3,1.09,3.13,3.13,0,0,1-2.65-1.24,4.76,4.76,0,0,1-.94-3,5.63,5.63,0,0,1,.43-2.19,3.45,3.45,0,0,1,1.25-1.55,3.39,3.39,0,0,1,1.92-.55,3,3,0,0,1,2.42,1.19v-1h1.3v7.18a6.81,6.81,0,0,1-.4,2.74,2.86,2.86,0,0,1-1.25,1.28,4.35,4.35,0,0,1-2.1.47,4,4,0,0,1-2.4-.67A2.27,2.27,0,0,1,588.59,117.06Zm1.17-5a3.55,3.55,0,0,0,.65,2.38,2,2,0,0,0,1.62.75,2.07,2.07,0,0,0,1.63-.74,3.53,3.53,0,0,0,.65-2.34,3.41,3.41,0,0,0-.67-2.3,2.11,2.11,0,0,0-1.63-.77,2,2,0,0,0-1.6.76A3.42,3.42,0,0,0,589.76,112.07Z"/>
      <path class="e" d="M597.75,116.37v-8.3H599v1.18a3,3,0,0,1,2.64-1.36,3.47,3.47,0,0,1,1.38.27,2.1,2.1,0,0,1,.94.7,2.63,2.63,0,0,1,.43,1,7.28,7.28,0,0,1,.08,1.37v5.1h-1.4v-5.05a3.71,3.71,0,0,0-.17-1.28,1.32,1.32,0,0,0-.58-.68,1.84,1.84,0,0,0-1-.26,2.27,2.27,0,0,0-1.55.57,2.81,2.81,0,0,0-.65,2.17v4.53Z"/>
      <path class="e" d="M606.66,116.37v-8.3h1.4v8.3Zm0-9.84v-1.61h1.4v1.61Z"/>
      <path class="e" d="M613.27,115.11l.21,1.24a4.86,4.86,0,0,1-1.07.13,2.39,2.39,0,0,1-1.18-.24,1.42,1.42,0,0,1-.6-.64,5.19,5.19,0,0,1-.17-1.66v-4.77h-1v-1.1h1v-2l1.4-.85v2.9h1.41v1.1h-1.41V114a2.44,2.44,0,0,0,.07.77.57.57,0,0,0,.25.28,1,1,0,0,0,.48.1A4.11,4.11,0,0,0,613.27,115.11Z"/>
      <path class="e" d="M614.66,116.37v-8.3h1.4v8.3Zm0-9.84v-1.61h1.4v1.61Z"/>
      <path class="e" d="M617.68,112.22a4.29,4.29,0,0,1,1.28-3.41,3.86,3.86,0,0,1,2.61-.92,3.73,3.73,0,0,1,2.8,1.12,4.26,4.26,0,0,1,1.08,3.09,5.48,5.48,0,0,1-.48,2.52,3.33,3.33,0,0,1-1.4,1.43,4,4,0,0,1-2,.51,3.73,3.73,0,0,1-2.82-1.12A4.49,4.49,0,0,1,617.68,112.22Zm1.45,0a3.57,3.57,0,0,0,.69,2.39,2.22,2.22,0,0,0,1.75.79,2.18,2.18,0,0,0,1.74-.8,3.58,3.58,0,0,0,.7-2.43,3.47,3.47,0,0,0-.7-2.33,2.32,2.32,0,0,0-3.49,0A3.54,3.54,0,0,0,619.13,112.22Z"/>
      <path class="e" d="M627.1,116.37v-8.3h1.27v1.18a3,3,0,0,1,2.64-1.36,3.47,3.47,0,0,1,1.38.27,2.1,2.1,0,0,1,.94.7,2.8,2.8,0,0,1,.44,1,8.59,8.59,0,0,1,.07,1.37v5.1h-1.4v-5.05a3.71,3.71,0,0,0-.17-1.28,1.32,1.32,0,0,0-.58-.68,1.84,1.84,0,0,0-1-.26,2.28,2.28,0,0,0-1.55.57,2.85,2.85,0,0,0-.65,2.17v4.53Z"/>
    </g>
  </g>
  <g>
    <g>
      <g>
        <line class="g" x1="594.78" y1="170.46" x2="594.78" y2="207.48"/>
        <path class="h" d="M594.75,219.52c-1.69-4.55-4.57-10.18-7.61-13.68l7.61,2.75,7.6-2.75C599.31,209.34,596.43,215,594.75,219.52Z"/>
      </g>
      <line class="g" x1="594.78" y1="167.66" x2="594.78" y2="168.61"/>
    </g>
    <g>
      <g>
        <line class="g" x1="544.44" y1="217.19" x2="544.44" y2="180.18"/>
        <path class="h" d="M544.47,168.14c1.69,4.54,4.56,10.18,7.61,13.67l-7.61-2.75-7.61,2.75C539.91,178.32,542.79,172.68,544.47,168.14Z"/>
      </g>
      <line class="g" x1="544.44" y1="219.99" x2="544.44" y2="219.04"/>
    </g>
  </g>
  <g>
    <line class="g" x1="729.7" y1="273.58" x2="692.69" y2="273.58"/>
    <path class="h" d="M694.32,281.19c-3.5-3.05-9.13-5.93-13.68-7.61,4.55-1.69,10.18-4.56,13.68-7.61"/>
    <line class="g" x1="732.5" y1="273.58" x2="731.55" y2="273.58"/>
  </g>
  <g>
    <circle class="c" cx="279.33" cy="328.68" r="90.53"/>
    <g class="d">
      <path class="e" d="M216,333V321.52h4.32a10.71,10.71,0,0,1,1.74.11,3.42,3.42,0,0,1,1.42.53,3,3,0,0,1,.92,1.11,3.75,3.75,0,0,1-.59,4,4.44,4.44,0,0,1-3.36,1h-2.93V333Zm1.52-6h3a3.15,3.15,0,0,0,2.08-.54,2,2,0,0,0,.62-1.54,2.08,2.08,0,0,0-.36-1.23,1.73,1.73,0,0,0-1-.68,7.09,7.09,0,0,0-1.41-.1h-2.93Z"/>
      <path class="e" d="M226.43,333v-8.29h1.26v1.25a3.42,3.42,0,0,1,.9-1.16,1.52,1.52,0,0,1,.9-.28,2.81,2.81,0,0,1,1.45.45l-.49,1.31a2,2,0,0,0-1-.31,1.32,1.32,0,0,0-.83.28,1.47,1.47,0,0,0-.52.77,5.37,5.37,0,0,0-.24,1.64V333Z"/>
      <path class="e" d="M231.25,328.82a4.26,4.26,0,0,1,1.28-3.41,3.87,3.87,0,0,1,2.61-.92,3.73,3.73,0,0,1,2.8,1.12,4.29,4.29,0,0,1,1.08,3.1,5.54,5.54,0,0,1-.48,2.52,3.42,3.42,0,0,1-1.4,1.42,4,4,0,0,1-2,.51,3.73,3.73,0,0,1-2.82-1.12A4.43,4.43,0,0,1,231.25,328.82Zm1.44,0a3.5,3.5,0,0,0,.7,2.39,2.32,2.32,0,0,0,3.49,0,3.63,3.63,0,0,0,.69-2.43,3.43,3.43,0,0,0-.69-2.33,2.31,2.31,0,0,0-3.49,0A3.49,3.49,0,0,0,232.69,328.82Z"/>
      <path class="e" d="M240.41,333.66l1.37.2a1.33,1.33,0,0,0,.47.93,2.36,2.36,0,0,0,1.43.39,2.49,2.49,0,0,0,1.51-.39,1.91,1.91,0,0,0,.72-1.1,8.82,8.82,0,0,0,.1-1.8,2.89,2.89,0,0,1-2.29,1.08,3.12,3.12,0,0,1-2.65-1.23,4.74,4.74,0,0,1-.94-3,5.42,5.42,0,0,1,.43-2.19,3.4,3.4,0,0,1,1.25-1.55,3.3,3.3,0,0,1,1.91-.55,3,3,0,0,1,2.43,1.19v-1h1.29v7.17a6.85,6.85,0,0,1-.39,2.74,2.91,2.91,0,0,1-1.25,1.28,4.39,4.39,0,0,1-2.11.47,3.94,3.94,0,0,1-2.4-.67A2.24,2.24,0,0,1,240.41,333.66Zm1.16-5a3.62,3.62,0,0,0,.65,2.38,2.14,2.14,0,0,0,3.25,0,3.44,3.44,0,0,0,.66-2.34,3.39,3.39,0,0,0-.68-2.29,2.07,2.07,0,0,0-3.22,0A3.4,3.4,0,0,0,241.57,328.68Z"/>
      <path class="e" d="M249.55,333v-8.29h1.27v1.25a3.43,3.43,0,0,1,.89-1.16,1.57,1.57,0,0,1,.9-.28,2.76,2.76,0,0,1,1.45.45l-.49,1.31a1.93,1.93,0,0,0-1-.31,1.29,1.29,0,0,0-.82.28,1.49,1.49,0,0,0-.53.77,5.7,5.7,0,0,0-.23,1.64V333Z"/>
      <path class="e" d="M260.31,332a5.49,5.49,0,0,1-1.5.94,4.45,4.45,0,0,1-1.56.27,3,3,0,0,1-2.1-.67,2.18,2.18,0,0,1-.73-1.7,2.24,2.24,0,0,1,.28-1.12,2.34,2.34,0,0,1,.72-.81,3.72,3.72,0,0,1,1-.46,11.68,11.68,0,0,1,1.25-.21,12.21,12.21,0,0,0,2.51-.48c0-.19,0-.32,0-.37a1.53,1.53,0,0,0-.4-1.21,2.34,2.34,0,0,0-1.6-.48,2.47,2.47,0,0,0-1.46.35,2.08,2.08,0,0,0-.7,1.23l-1.38-.19a3.38,3.38,0,0,1,.62-1.42,2.65,2.65,0,0,1,1.24-.84,5.67,5.67,0,0,1,1.88-.29,4.91,4.91,0,0,1,1.73.25,2.38,2.38,0,0,1,1,.63,2.24,2.24,0,0,1,.43,1,7.45,7.45,0,0,1,.07,1.29v1.88a20,20,0,0,0,.09,2.48,3,3,0,0,0,.36,1h-1.47A2.83,2.83,0,0,1,260.31,332Zm-.12-3.14a9.85,9.85,0,0,1-2.29.53,5.39,5.39,0,0,0-1.23.28,1.28,1.28,0,0,0-.56.46,1.25,1.25,0,0,0,.23,1.6,1.85,1.85,0,0,0,1.25.38,2.91,2.91,0,0,0,1.45-.36,2.18,2.18,0,0,0,.93-1,3.4,3.4,0,0,0,.22-1.4Z"/>
      <path class="e" d="M263.79,333v-8.29h1.26v1.16a3,3,0,0,1,1-1,2.9,2.9,0,0,1,1.48-.37,2.77,2.77,0,0,1,1.51.38,2.07,2.07,0,0,1,.83,1.07,3,3,0,0,1,2.56-1.45,2.54,2.54,0,0,1,1.9.68,3,3,0,0,1,.67,2.11V333h-1.4v-5.22a3.88,3.88,0,0,0-.14-1.22,1.29,1.29,0,0,0-.49-.6,1.58,1.58,0,0,0-.85-.22,1.94,1.94,0,0,0-1.45.58,2.54,2.54,0,0,0-.58,1.86V333h-1.41v-5.39a2.35,2.35,0,0,0-.34-1.4,1.28,1.28,0,0,0-1.12-.47,2,2,0,0,0-1.1.31,1.75,1.75,0,0,0-.73.91,5,5,0,0,0-.23,1.74V333Z"/>
      <path class="e" d="M281.7,333V321.52H284l2.71,8.11c.25.75.43,1.32.55,1.7.13-.42.33-1,.61-1.84l2.74-8h2V333h-1.46v-9.58L287.84,333h-1.37l-3.31-9.75V333Z"/>
      <path class="e" d="M300.31,332a5.49,5.49,0,0,1-1.5.94,4.45,4.45,0,0,1-1.56.27,3,3,0,0,1-2.1-.67,2.18,2.18,0,0,1-.73-1.7,2.24,2.24,0,0,1,.28-1.12,2.34,2.34,0,0,1,.72-.81,3.72,3.72,0,0,1,1-.46,11.68,11.68,0,0,1,1.25-.21,12.21,12.21,0,0,0,2.51-.48c0-.19,0-.32,0-.37a1.53,1.53,0,0,0-.4-1.21,2.34,2.34,0,0,0-1.6-.48,2.47,2.47,0,0,0-1.46.35,2.08,2.08,0,0,0-.7,1.23l-1.38-.19a3.38,3.38,0,0,1,.62-1.42,2.73,2.73,0,0,1,1.24-.84,5.67,5.67,0,0,1,1.88-.29,4.91,4.91,0,0,1,1.73.25,2.38,2.38,0,0,1,1,.63,2.24,2.24,0,0,1,.43,1,7.45,7.45,0,0,1,.07,1.29v1.88a20,20,0,0,0,.09,2.48,3,3,0,0,0,.36,1h-1.47A2.83,2.83,0,0,1,300.31,332Zm-.12-3.14a9.85,9.85,0,0,1-2.29.53,5.39,5.39,0,0,0-1.23.28,1.28,1.28,0,0,0-.56.46,1.25,1.25,0,0,0,.23,1.6,1.85,1.85,0,0,0,1.25.38,2.91,2.91,0,0,0,1.45-.36,2.18,2.18,0,0,0,.93-1,3.4,3.4,0,0,0,.22-1.4Z"/>
      <path class="e" d="M303.79,333v-8.29h1.27v1.18a3,3,0,0,1,2.64-1.37,3.47,3.47,0,0,1,1.38.27,2.11,2.11,0,0,1,.94.71,2.73,2.73,0,0,1,.44,1,8.13,8.13,0,0,1,.08,1.36V333h-1.41v-5a4.1,4.1,0,0,0-.16-1.29,1.38,1.38,0,0,0-.59-.68,1.83,1.83,0,0,0-1-.25,2.28,2.28,0,0,0-1.55.57,2.83,2.83,0,0,0-.65,2.16V333Z"/>
      <path class="e" d="M318.11,332a5.29,5.29,0,0,1-1.51.94,4.39,4.39,0,0,1-1.55.27,3,3,0,0,1-2.1-.67,2.18,2.18,0,0,1-.73-1.7,2.24,2.24,0,0,1,1-1.92,3.46,3.46,0,0,1,1-.47,11.25,11.25,0,0,1,1.25-.21,12.35,12.35,0,0,0,2.51-.48c0-.19,0-.32,0-.37a1.58,1.58,0,0,0-.4-1.21,2.34,2.34,0,0,0-1.6-.48,2.53,2.53,0,0,0-1.47.35,2.13,2.13,0,0,0-.7,1.23l-1.37-.19a3.31,3.31,0,0,1,.62-1.42,2.73,2.73,0,0,1,1.24-.84,5.67,5.67,0,0,1,1.88-.29,5,5,0,0,1,1.73.25,2.33,2.33,0,0,1,1,.63,2.13,2.13,0,0,1,.44,1,7.53,7.53,0,0,1,.07,1.29v1.88a19.87,19.87,0,0,0,.09,2.48,3,3,0,0,0,.36,1h-1.47A2.83,2.83,0,0,1,318.11,332Zm-.12-3.14a10,10,0,0,1-2.3.53,5.14,5.14,0,0,0-1.22.28,1.28,1.28,0,0,0-.56.46,1.19,1.19,0,0,0-.19.67,1.22,1.22,0,0,0,.42.94,1.85,1.85,0,0,0,1.25.37,2.85,2.85,0,0,0,1.44-.36,2.18,2.18,0,0,0,.93-1,3.38,3.38,0,0,0,.23-1.4Z"/>
      <path class="e" d="M321.33,333.66l1.37.21a1.33,1.33,0,0,0,.48.92,2.32,2.32,0,0,0,1.43.39,2.48,2.48,0,0,0,1.5-.39,1.88,1.88,0,0,0,.72-1.1,8.07,8.07,0,0,0,.1-1.8,2.89,2.89,0,0,1-2.29,1.08,3.13,3.13,0,0,1-2.65-1.23,4.72,4.72,0,0,1-.94-3,5.45,5.45,0,0,1,.43-2.19,3.4,3.4,0,0,1,1.25-1.55,3.31,3.31,0,0,1,1.92-.55,3,3,0,0,1,2.42,1.19v-1h1.29v7.17a6.9,6.9,0,0,1-.39,2.75,2.89,2.89,0,0,1-1.25,1.27,4.25,4.25,0,0,1-2.11.47,3.89,3.89,0,0,1-2.39-.67A2.25,2.25,0,0,1,321.33,333.66Zm1.17-5a3.55,3.55,0,0,0,.65,2.38,2,2,0,0,0,1.62.75,2.08,2.08,0,0,0,1.63-.75,3.5,3.5,0,0,0,.65-2.34,3.38,3.38,0,0,0-.67-2.29,2.09,2.09,0,0,0-1.63-.78,2,2,0,0,0-1.6.77A3.4,3.4,0,0,0,322.5,328.68Z"/>
      <path class="e" d="M336.17,330.3l1.45.18a3.55,3.55,0,0,1-1.27,2,3.82,3.82,0,0,1-2.38.7,3.77,3.77,0,0,1-2.88-1.12A4.38,4.38,0,0,1,330,328.9a4.57,4.57,0,0,1,1.08-3.25,3.66,3.66,0,0,1,2.8-1.16,3.54,3.54,0,0,1,2.71,1.13,4.49,4.49,0,0,1,1.06,3.19c0,.08,0,.21,0,.38h-6.19a3.15,3.15,0,0,0,.78,2.09A2.31,2.31,0,0,0,334,332a2.14,2.14,0,0,0,1.32-.41A2.68,2.68,0,0,0,336.17,330.3ZM331.55,328h4.63a2.8,2.8,0,0,0-.53-1.57,2.15,2.15,0,0,0-1.74-.81,2.25,2.25,0,0,0-1.63.64A2.62,2.62,0,0,0,331.55,328Z"/>
      <path class="e" d="M339.37,333v-8.29h1.27v1.26a3.49,3.49,0,0,1,.89-1.17,1.58,1.58,0,0,1,.91-.28,2.75,2.75,0,0,1,1.44.45l-.48,1.31a2,2,0,0,0-1-.31,1.35,1.35,0,0,0-.82.28,1.53,1.53,0,0,0-.53.77,5.7,5.7,0,0,0-.23,1.64V333Z"/>
    </g>
  </g>
  <g>
    <rect class="c" x="766.78" y="331.74" width="143.06" height="104.08" rx="12" ry="12"/>
    <g class="d">
      <path class="e" d="M807.3,388.08V378h-3.77v-1.36h9.08V378h-3.79v10.1Z"/>
      <path class="e" d="M817.89,385.41l1.45.17a3.55,3.55,0,0,1-1.27,2,4.33,4.33,0,0,1-5.27-.42,4.36,4.36,0,0,1-1.06-3.14,4.57,4.57,0,0,1,1.08-3.25,3.65,3.65,0,0,1,2.79-1.16,3.53,3.53,0,0,1,2.72,1.14,4.44,4.44,0,0,1,1.06,3.18c0,.09,0,.21,0,.38h-6.19a3.18,3.18,0,0,0,.77,2.09,2.31,2.31,0,0,0,1.74.73,2.18,2.18,0,0,0,1.32-.41A2.77,2.77,0,0,0,817.89,385.41Zm-4.62-2.28h4.63a2.8,2.8,0,0,0-.53-1.57,2.16,2.16,0,0,0-1.74-.81,2.2,2.2,0,0,0-1.63.65A2.57,2.57,0,0,0,813.27,383.13Z"/>
      <path class="e" d="M821.07,388.08V376.62h1.41v11.46Z"/>
      <path class="e" d="M830.34,385.41l1.45.17a3.55,3.55,0,0,1-1.27,2,3.82,3.82,0,0,1-2.38.7,3.77,3.77,0,0,1-2.88-1.12,4.36,4.36,0,0,1-1.07-3.14,4.57,4.57,0,0,1,1.08-3.25,3.66,3.66,0,0,1,2.8-1.16,3.55,3.55,0,0,1,2.72,1.14,4.48,4.48,0,0,1,1.05,3.18c0,.09,0,.21,0,.38h-6.19a3.18,3.18,0,0,0,.78,2.09,2.27,2.27,0,0,0,1.73.73,2.14,2.14,0,0,0,1.32-.41A2.63,2.63,0,0,0,830.34,385.41Zm-4.62-2.28h4.64a2.8,2.8,0,0,0-.54-1.57,2.13,2.13,0,0,0-1.74-.81,2.22,2.22,0,0,0-1.63.65A2.57,2.57,0,0,0,825.72,383.13Z"/>
      <path class="e" d="M835.86,388.08l-3.15-8.3h1.48l1.78,5c.2.54.37,1.09.53,1.67.13-.44.3-1,.53-1.58l1.84-5.06h1.45l-3.14,8.3Z"/>
      <path class="e" d="M841.57,388.08v-8.3H843v8.3Zm0-9.84v-1.62H843v1.62Z"/>
      <path class="e" d="M844.55,385.6l1.39-.22a2,2,0,0,0,.65,1.28,2.28,2.28,0,0,0,1.5.45,2.17,2.17,0,0,0,1.44-.4,1.18,1.18,0,0,0,.47-.92.85.85,0,0,0-.42-.75,5.62,5.62,0,0,0-1.44-.48,13.23,13.23,0,0,1-2.14-.67,2,2,0,0,1-1.21-1.91,2.08,2.08,0,0,1,.25-1,2.28,2.28,0,0,1,.69-.79,2.91,2.91,0,0,1,.9-.41,4.26,4.26,0,0,1,1.21-.17,5,5,0,0,1,1.72.28,2.41,2.41,0,0,1,1.09.77,3.06,3.06,0,0,1,.48,1.28l-1.38.19a1.48,1.48,0,0,0-.54-1,2,2,0,0,0-1.27-.36,2.31,2.31,0,0,0-1.38.32.92.92,0,0,0-.42.75.74.74,0,0,0,.18.49,1.21,1.21,0,0,0,.54.38c.14.05.55.17,1.24.36a16.3,16.3,0,0,1,2.08.65,2.14,2.14,0,0,1,.93.74,2.07,2.07,0,0,1,.33,1.2A2.36,2.36,0,0,1,851,387a2.65,2.65,0,0,1-1.18,1,4.44,4.44,0,0,1-1.75.34,3.91,3.91,0,0,1-2.47-.68A3.14,3.14,0,0,1,844.55,385.6Z"/>
      <path class="e" d="M853.12,388.08v-8.3h1.41v8.3Zm0-9.84v-1.62h1.41v1.62Z"/>
      <path class="e" d="M856.14,383.93a4.23,4.23,0,0,1,1.29-3.41,3.83,3.83,0,0,1,2.61-.93,3.73,3.73,0,0,1,2.79,1.12,4.26,4.26,0,0,1,1.09,3.1,5.48,5.48,0,0,1-.48,2.52,3.44,3.44,0,0,1-1.4,1.43,4,4,0,0,1-2,.51,3.73,3.73,0,0,1-2.82-1.12A4.46,4.46,0,0,1,856.14,383.93Zm1.45,0a3.52,3.52,0,0,0,.7,2.39,2.31,2.31,0,0,0,3.49,0,3.63,3.63,0,0,0,.69-2.43,3.42,3.42,0,0,0-.7-2.33,2.31,2.31,0,0,0-3.48,0A3.47,3.47,0,0,0,857.59,383.93Z"/>
      <path class="e" d="M865.57,388.08v-8.3h1.26V381a3,3,0,0,1,2.64-1.37,3.47,3.47,0,0,1,1.38.27,2.19,2.19,0,0,1,.94.71,2.64,2.64,0,0,1,.44,1,8.27,8.27,0,0,1,.08,1.37v5.1H870.9V383a3.75,3.75,0,0,0-.16-1.28,1.37,1.37,0,0,0-.58-.68,1.86,1.86,0,0,0-1-.26,2.31,2.31,0,0,0-1.56.57,2.84,2.84,0,0,0-.65,2.17v4.53Z"/>
    </g>
  </g>
  <g>
    <line class="g" x1="683.45" y1="383.75" x2="720.46" y2="383.75"/>
    <path class="h" d="M718.82,376.18c3.5,3,9.13,5.92,13.68,7.6-4.55,1.69-10.18,4.57-13.68,7.61"/>
    <line class="g" x1="680.64" y1="383.75" x2="681.59" y2="383.75"/>
  </g>
  <g>
    <rect class="c" x="498.08" y="243.7" width="143.06" height="59.75" rx="12" ry="12"/>
    <g class="d">
      <path class="e" d="M515.2,277.87l4.4-11.45h1.63l4.69,11.45h-1.73l-1.33-3.47h-4.79l-1.26,3.47Zm3.31-4.7h3.88l-1.2-3.17c-.36-1-.63-1.76-.81-2.38a14.92,14.92,0,0,1-.61,2.19Z"/>
      <path class="e" d="M532.39,277.87v-1.22a3,3,0,0,1-2.63,1.41,3.46,3.46,0,0,1-1.37-.28,2.33,2.33,0,0,1-.95-.71,2.51,2.51,0,0,1-.43-1,6.94,6.94,0,0,1-.09-1.32v-5.14h1.41v4.6a8.19,8.19,0,0,0,.08,1.49,1.46,1.46,0,0,0,.57.87,1.73,1.73,0,0,0,1.06.32,2.32,2.32,0,0,0,1.19-.33,1.75,1.75,0,0,0,.78-.88,4.49,4.49,0,0,0,.23-1.62v-4.45h1.41v8.3Z"/>
      <path class="e" d="M541.23,277.87v-1.05a2.56,2.56,0,0,1-2.32,1.24,3.27,3.27,0,0,1-1.82-.55A3.48,3.48,0,0,1,535.8,276a5.17,5.17,0,0,1-.46-2.25,5.78,5.78,0,0,1,.42-2.25,3.24,3.24,0,0,1,1.24-1.56,3.39,3.39,0,0,1,1.85-.53,2.79,2.79,0,0,1,1.34.31,2.73,2.73,0,0,1,.95.83v-4.11h1.4v11.45Zm-4.44-4.14a3.58,3.58,0,0,0,.67,2.38,2,2,0,0,0,1.59.79,2,2,0,0,0,1.56-.75,3.49,3.49,0,0,0,.65-2.3,3.87,3.87,0,0,0-.66-2.5,2,2,0,0,0-1.62-.8,1.92,1.92,0,0,0-1.56.77A3.76,3.76,0,0,0,536.79,273.73Z"/>
      <path class="e" d="M544.76,277.87v-8.3h1.4v8.3Zm0-9.84v-1.61h1.4V268Z"/>
      <path class="e" d="M547.78,273.72a4.29,4.29,0,0,1,1.28-3.41,3.84,3.84,0,0,1,2.61-.92,3.73,3.73,0,0,1,2.8,1.12,4.26,4.26,0,0,1,1.08,3.09,5.48,5.48,0,0,1-.48,2.52,3.33,3.33,0,0,1-1.4,1.43,4,4,0,0,1-2,.51,3.73,3.73,0,0,1-2.82-1.12A4.49,4.49,0,0,1,547.78,273.72Zm1.45,0a3.57,3.57,0,0,0,.69,2.39,2.22,2.22,0,0,0,1.75.79,2.18,2.18,0,0,0,1.74-.8,3.58,3.58,0,0,0,.7-2.43,3.47,3.47,0,0,0-.7-2.33,2.32,2.32,0,0,0-3.49,0A3.54,3.54,0,0,0,549.23,273.72Z"/>
      <path class="e" d="M561.78,277.87V266.42h2.28l2.71,8.11c.25.75.43,1.32.55,1.69.13-.41.33-1,.61-1.83l2.74-8h2v11.45h-1.46v-9.58l-3.33,9.58h-1.37l-3.31-9.75v9.75Z"/>
      <path class="e" d="M580.39,276.85a5.49,5.49,0,0,1-1.5.94,4.45,4.45,0,0,1-1.56.27,3,3,0,0,1-2.1-.67,2.19,2.19,0,0,1-.73-1.71,2.23,2.23,0,0,1,.28-1.11,2.18,2.18,0,0,1,.72-.81,3.72,3.72,0,0,1,1-.46,11.68,11.68,0,0,1,1.25-.21,13.75,13.75,0,0,0,2.51-.48c0-.2,0-.32,0-.37a1.52,1.52,0,0,0-.4-1.21,2.34,2.34,0,0,0-1.6-.48,2.47,2.47,0,0,0-1.46.35,2.08,2.08,0,0,0-.7,1.23l-1.38-.19a3.38,3.38,0,0,1,.62-1.42,2.63,2.63,0,0,1,1.24-.84,5.42,5.42,0,0,1,1.88-.29,4.91,4.91,0,0,1,1.73.25,2.19,2.19,0,0,1,1,.63,2.13,2.13,0,0,1,.43,1,7.59,7.59,0,0,1,.07,1.3v1.87a19.75,19.75,0,0,0,.09,2.48,3.08,3.08,0,0,0,.36,1h-1.47A2.83,2.83,0,0,1,580.39,276.85Zm-.12-3.14a11,11,0,0,1-2.29.53,4.9,4.9,0,0,0-1.23.28,1.22,1.22,0,0,0-.56.46,1.18,1.18,0,0,0-.19.66,1.2,1.2,0,0,0,.42.94,1.85,1.85,0,0,0,1.25.38,2.91,2.91,0,0,0,1.45-.36,2.23,2.23,0,0,0,.93-1,3.46,3.46,0,0,0,.22-1.41Z"/>
      <path class="e" d="M583.87,277.87v-8.3h1.27v1.18a3,3,0,0,1,2.64-1.36,3.47,3.47,0,0,1,1.38.27,2.17,2.17,0,0,1,.94.7,2.87,2.87,0,0,1,.44,1,8.27,8.27,0,0,1,.08,1.37v5.1h-1.41v-5.05a4,4,0,0,0-.16-1.28,1.34,1.34,0,0,0-.59-.68,1.81,1.81,0,0,0-1-.25,2.28,2.28,0,0,0-1.55.57,2.83,2.83,0,0,0-.65,2.16v4.53Z"/>
      <path class="e" d="M598.19,276.85a5.53,5.53,0,0,1-1.51.94,4.39,4.39,0,0,1-1.55.27,3,3,0,0,1-2.1-.67,2.19,2.19,0,0,1-.73-1.71,2.34,2.34,0,0,1,.27-1.11,2.29,2.29,0,0,1,.73-.81,3.72,3.72,0,0,1,1-.46,11.25,11.25,0,0,1,1.25-.21,13.94,13.94,0,0,0,2.51-.48c0-.2,0-.32,0-.37a1.55,1.55,0,0,0-.4-1.21,2.34,2.34,0,0,0-1.6-.48,2.53,2.53,0,0,0-1.47.35,2.13,2.13,0,0,0-.7,1.23l-1.37-.19a3.26,3.26,0,0,1,.62-1.42,2.58,2.58,0,0,1,1.24-.84,5.42,5.42,0,0,1,1.88-.29,5,5,0,0,1,1.73.25,2,2,0,0,1,1.41,1.58,7.59,7.59,0,0,1,.07,1.3v1.87a19.75,19.75,0,0,0,.09,2.48,3.08,3.08,0,0,0,.36,1h-1.47A2.83,2.83,0,0,1,598.19,276.85Zm-.12-3.14a11.14,11.14,0,0,1-2.3.53,4.68,4.68,0,0,0-1.22.28,1.22,1.22,0,0,0-.56.46,1.18,1.18,0,0,0-.19.66,1.2,1.2,0,0,0,.42.94,1.85,1.85,0,0,0,1.25.38,2.85,2.85,0,0,0,1.44-.36,2.23,2.23,0,0,0,.93-1,3.43,3.43,0,0,0,.23-1.41Z"/>
      <path class="e" d="M601.41,278.56l1.37.2a1.31,1.31,0,0,0,.48.92,2.32,2.32,0,0,0,1.43.39,2.41,2.41,0,0,0,1.5-.39,1.86,1.86,0,0,0,.72-1.09,8.18,8.18,0,0,0,.1-1.8,2.89,2.89,0,0,1-2.29,1.08,3.13,3.13,0,0,1-2.65-1.23,4.74,4.74,0,0,1-.94-3,5.47,5.47,0,0,1,.43-2.2,3.51,3.51,0,0,1,1.25-1.55,3.38,3.38,0,0,1,1.92-.54,3,3,0,0,1,2.42,1.19v-1h1.29v7.17a6.85,6.85,0,0,1-.39,2.74,2.86,2.86,0,0,1-1.25,1.28,4.36,4.36,0,0,1-2.11.47,3.89,3.89,0,0,1-2.39-.67A2.27,2.27,0,0,1,601.41,278.56Zm1.17-5a3.58,3.58,0,0,0,.65,2.39,2,2,0,0,0,1.62.75,2.08,2.08,0,0,0,1.63-.75,3.53,3.53,0,0,0,.65-2.34,3.38,3.38,0,0,0-.67-2.29,2.09,2.09,0,0,0-1.63-.78,2,2,0,0,0-1.6.76A3.42,3.42,0,0,0,602.58,273.57Z"/>
      <path class="e" d="M616.25,275.2l1.45.18a3.55,3.55,0,0,1-1.27,2,3.82,3.82,0,0,1-2.38.7,3.77,3.77,0,0,1-2.88-1.12,4.4,4.4,0,0,1-1.07-3.15,4.59,4.59,0,0,1,1.08-3.25,3.65,3.65,0,0,1,2.8-1.15,3.54,3.54,0,0,1,2.71,1.13,4.49,4.49,0,0,1,1.06,3.19c0,.08,0,.21,0,.37h-6.19a3.18,3.18,0,0,0,.78,2.1,2.3,2.3,0,0,0,1.73.72,2.13,2.13,0,0,0,1.32-.4A2.73,2.73,0,0,0,616.25,275.2Zm-4.62-2.27h4.63a2.77,2.77,0,0,0-.53-1.57,2.13,2.13,0,0,0-1.74-.82,2.26,2.26,0,0,0-1.63.65A2.58,2.58,0,0,0,611.63,272.93Z"/>
      <path class="e" d="M619.45,277.87v-8.29h1.27v1.25a3.43,3.43,0,0,1,.89-1.16,1.58,1.58,0,0,1,.91-.28,2.75,2.75,0,0,1,1.44.45l-.48,1.31a2,2,0,0,0-1-.31,1.29,1.29,0,0,0-.82.28,1.49,1.49,0,0,0-.53.77,5.65,5.65,0,0,0-.23,1.64v4.34Z"/>
    </g>
  </g>
  <g>
    <rect class="c" x="498.08" y="353.91" width="143.06" height="59.75" rx="12" ry="12"/>
    <g class="d">
      <path class="e" d="M511.56,388.08V376.62h3.95a9.48,9.48,0,0,1,2,.17,3.89,3.89,0,0,1,1.68.82,4.69,4.69,0,0,1,1.35,1.95,7.74,7.74,0,0,1,.45,2.73,8.09,8.09,0,0,1-.3,2.31,5.76,5.76,0,0,1-.79,1.67,4.11,4.11,0,0,1-1,1,4.28,4.28,0,0,1-1.37.57,7.73,7.73,0,0,1-1.84.2Zm1.52-1.36h2.44a6,6,0,0,0,1.78-.21,2.64,2.64,0,0,0,1-.59,3.59,3.59,0,0,0,.84-1.45,7.11,7.11,0,0,0,.3-2.21,5.39,5.39,0,0,0-.59-2.76,3,3,0,0,0-1.44-1.29,5.77,5.77,0,0,0-2-.24h-2.4Z"/>
      <path class="e" d="M522.94,388.08v-8.3h1.41v8.3Zm0-9.84v-1.62h1.41v1.62Z"/>
      <path class="e" d="M525.93,385.6l1.39-.22a1.91,1.91,0,0,0,.65,1.28,2.28,2.28,0,0,0,1.5.45,2.14,2.14,0,0,0,1.43-.4,1.15,1.15,0,0,0,.47-.92A.84.84,0,0,0,531,385a5.62,5.62,0,0,0-1.44-.48,12.07,12.07,0,0,1-2.14-.68,2.12,2.12,0,0,1-.91-.78,2.17,2.17,0,0,1-.05-2.15,2.34,2.34,0,0,1,.69-.78,2.84,2.84,0,0,1,.89-.41,4.39,4.39,0,0,1,1.22-.17,4.94,4.94,0,0,1,1.71.28,2.34,2.34,0,0,1,1.09.76,2.93,2.93,0,0,1,.49,1.29l-1.38.19a1.48,1.48,0,0,0-.54-1,2,2,0,0,0-1.27-.36,2.22,2.22,0,0,0-1.38.32.92.92,0,0,0-.42.75.81.81,0,0,0,.17.49,1.33,1.33,0,0,0,.54.38c.14.05.56.17,1.25.35a18.32,18.32,0,0,1,2.08.66,2.05,2.05,0,0,1,.92.74,2,2,0,0,1,.34,1.2,2.36,2.36,0,0,1-.41,1.32,2.57,2.57,0,0,1-1.18,1,4.27,4.27,0,0,1-1.75.34,3.91,3.91,0,0,1-2.47-.67A3.07,3.07,0,0,1,525.93,385.6Z"/>
      <path class="e" d="M534.49,391.26V379.78h1.28v1.08a3.17,3.17,0,0,1,1-.95,2.82,2.82,0,0,1,1.38-.32,3.22,3.22,0,0,1,1.87.55,3.32,3.32,0,0,1,1.23,1.54,6.05,6.05,0,0,1,0,4.48,3.47,3.47,0,0,1-1.33,1.56,3.42,3.42,0,0,1-1.83.54,2.79,2.79,0,0,1-1.27-.29,2.93,2.93,0,0,1-.91-.75v4Zm1.27-7.29a3.63,3.63,0,0,0,.65,2.37,2,2,0,0,0,1.57.77,2,2,0,0,0,1.61-.8,3.75,3.75,0,0,0,.67-2.45,3.65,3.65,0,0,0-.66-2.38,2,2,0,0,0-1.55-.79,2,2,0,0,0-1.59.84A3.72,3.72,0,0,0,535.76,384Z"/>
      <path class="e" d="M543.36,388.08V376.62h1.4v11.46Z"/>
      <path class="e" d="M552.36,387.05a5,5,0,0,1-1.51.94,4.39,4.39,0,0,1-1.55.27,3,3,0,0,1-2.1-.66,2.22,2.22,0,0,1-.73-1.71,2.28,2.28,0,0,1,1-1.92,3.2,3.2,0,0,1,1-.46,9.26,9.26,0,0,1,1.25-.22,12.35,12.35,0,0,0,2.51-.48c0-.19,0-.31,0-.37a1.55,1.55,0,0,0-.4-1.21,2.34,2.34,0,0,0-1.6-.47,2.53,2.53,0,0,0-1.47.34,2.23,2.23,0,0,0-.7,1.23l-1.37-.18a3.3,3.3,0,0,1,.62-1.43,2.73,2.73,0,0,1,1.24-.84,5.67,5.67,0,0,1,1.88-.29,5.15,5.15,0,0,1,1.73.25,2.38,2.38,0,0,1,1,.63,2.24,2.24,0,0,1,.43,1,7.59,7.59,0,0,1,.07,1.3v1.87a19.87,19.87,0,0,0,.09,2.48,3.08,3.08,0,0,0,.36,1h-1.47A2.89,2.89,0,0,1,552.36,387.05Zm-.12-3.14a10,10,0,0,1-2.3.53,6,6,0,0,0-1.22.28,1.28,1.28,0,0,0-.56.46,1.19,1.19,0,0,0-.19.67,1.22,1.22,0,0,0,.42.94,1.85,1.85,0,0,0,1.25.37,3,3,0,0,0,1.44-.35,2.1,2.1,0,0,0,.93-1,3.19,3.19,0,0,0,.23-1.4Z"/>
      <path class="e" d="M555.78,391.27l-.16-1.32a2.94,2.94,0,0,0,.81.13,1.49,1.49,0,0,0,.75-.16,1.21,1.21,0,0,0,.46-.44,7.08,7.08,0,0,0,.43-1c0-.08.07-.2.12-.35l-3.14-8.31h1.51l1.73,4.8c.22.61.42,1.25.6,1.93a16.58,16.58,0,0,1,.58-1.89l1.77-4.84h1.41l-3.16,8.44a16,16,0,0,1-.79,1.88,2.77,2.77,0,0,1-.86,1,2,2,0,0,1-1.15.32A2.68,2.68,0,0,1,555.78,391.27Z"/>
      <path class="e" d="M568.42,388.08V376.62h2.28l2.71,8.11c.25.76.43,1.32.55,1.7.13-.42.33-1,.61-1.84l2.74-8h2v11.46h-1.46v-9.59l-3.33,9.59h-1.37l-3.31-9.75v9.75Z"/>
      <path class="e" d="M587,387.05a5,5,0,0,1-1.5.94,4.43,4.43,0,0,1-1.55.27,3,3,0,0,1-2.11-.66,2.22,2.22,0,0,1-.73-1.71,2.35,2.35,0,0,1,1-1.92,3.2,3.2,0,0,1,1-.46,8.12,8.12,0,0,1,1.25-.21,12.78,12.78,0,0,0,2.51-.49c0-.19,0-.31,0-.37a1.55,1.55,0,0,0-.4-1.21,2.39,2.39,0,0,0-1.6-.47,2.48,2.48,0,0,0-1.46.34,2.15,2.15,0,0,0-.7,1.23l-1.38-.18a3.43,3.43,0,0,1,.62-1.43,2.69,2.69,0,0,1,1.24-.83,5.41,5.41,0,0,1,1.88-.3,5.15,5.15,0,0,1,1.73.25,2.38,2.38,0,0,1,1,.63,2.12,2.12,0,0,1,.43,1,7.59,7.59,0,0,1,.07,1.3v1.87a19.87,19.87,0,0,0,.09,2.48,3.08,3.08,0,0,0,.36,1h-1.47A3.11,3.11,0,0,1,587,387.05Zm-.12-3.14a9.85,9.85,0,0,1-2.29.53,5.28,5.28,0,0,0-1.23.29,1.2,1.2,0,0,0-.56.45,1.27,1.27,0,0,0,.23,1.61,1.85,1.85,0,0,0,1.25.37,3,3,0,0,0,1.45-.35,2.2,2.2,0,0,0,.93-1,3.37,3.37,0,0,0,.22-1.4Z"/>
      <path class="e" d="M590.51,388.08v-8.3h1.27V381a3,3,0,0,1,2.64-1.37,3.47,3.47,0,0,1,1.38.27,2.19,2.19,0,0,1,.94.71,2.8,2.8,0,0,1,.44,1,8.18,8.18,0,0,1,.08,1.37v5.1h-1.41V383a3.75,3.75,0,0,0-.16-1.28,1.3,1.3,0,0,0-.59-.68,1.81,1.81,0,0,0-1-.26,2.28,2.28,0,0,0-1.55.57,2.84,2.84,0,0,0-.65,2.17v4.53Z"/>
      <path class="e" d="M604.83,387.05a5.08,5.08,0,0,1-1.51.94,4.4,4.4,0,0,1-1.55.28,3,3,0,0,1-2.1-.67,2.22,2.22,0,0,1-.73-1.71,2.28,2.28,0,0,1,1-1.92,3.2,3.2,0,0,1,1-.46,7.9,7.9,0,0,1,1.25-.21,12.94,12.94,0,0,0,2.51-.49c0-.19,0-.31,0-.36a1.59,1.59,0,0,0-.4-1.22,2.39,2.39,0,0,0-1.6-.47,2.45,2.45,0,0,0-1.47.35,2.14,2.14,0,0,0-.7,1.22l-1.37-.18a3.3,3.3,0,0,1,.62-1.43,2.64,2.64,0,0,1,1.24-.83,5.41,5.41,0,0,1,1.88-.3,5.19,5.19,0,0,1,1.73.25,2.27,2.27,0,0,1,1,.63,2.18,2.18,0,0,1,.44,1,7.59,7.59,0,0,1,.07,1.3v1.87a19.75,19.75,0,0,0,.09,2.48,3.08,3.08,0,0,0,.36,1h-1.47A2.83,2.83,0,0,1,604.83,387.05Zm-.12-3.14a10.42,10.42,0,0,1-2.3.54,4.79,4.79,0,0,0-1.22.28,1.2,1.2,0,0,0-.56.45,1.27,1.27,0,0,0,.23,1.61,1.85,1.85,0,0,0,1.25.37,2.85,2.85,0,0,0,1.44-.35,2.17,2.17,0,0,0,.93-1,3.43,3.43,0,0,0,.23-1.41Z"/>
      <path class="e" d="M608.05,388.77l1.37.2a1.31,1.31,0,0,0,.48.92,2.34,2.34,0,0,0,1.43.39,2.48,2.48,0,0,0,1.5-.39,1.86,1.86,0,0,0,.72-1.09,8.23,8.23,0,0,0,.1-1.81,2.87,2.87,0,0,1-2.29,1.09,3.11,3.11,0,0,1-2.65-1.24,4.72,4.72,0,0,1-.94-3,5.63,5.63,0,0,1,.43-2.19,3.3,3.3,0,0,1,3.17-2.1,3,3,0,0,1,2.42,1.19v-1h1.29V387a6.87,6.87,0,0,1-.39,2.75,2.91,2.91,0,0,1-1.25,1.28,4.36,4.36,0,0,1-2.11.47,4,4,0,0,1-2.39-.67A2.27,2.27,0,0,1,608.05,388.77Zm1.17-5a3.55,3.55,0,0,0,.65,2.38,2,2,0,0,0,1.62.75,2.1,2.1,0,0,0,1.63-.74,3.53,3.53,0,0,0,.65-2.34,3.41,3.41,0,0,0-.67-2.3,2.11,2.11,0,0,0-1.63-.77,2,2,0,0,0-1.6.76A3.42,3.42,0,0,0,609.22,383.78Z"/>
      <path class="e" d="M622.89,385.41l1.45.18a3.56,3.56,0,0,1-1.27,2,3.83,3.83,0,0,1-2.38.71,3.78,3.78,0,0,1-2.88-1.13,4.36,4.36,0,0,1-1.07-3.14,4.57,4.57,0,0,1,1.08-3.25,3.66,3.66,0,0,1,2.8-1.16,3.51,3.51,0,0,1,2.71,1.14,4.44,4.44,0,0,1,1.06,3.18c0,.09,0,.21,0,.38h-6.19a3.18,3.18,0,0,0,.78,2.09,2.27,2.27,0,0,0,1.73.73,2.14,2.14,0,0,0,1.32-.41A2.63,2.63,0,0,0,622.89,385.41Zm-4.62-2.28h4.63a2.73,2.73,0,0,0-.53-1.57,2.13,2.13,0,0,0-1.74-.81,2.26,2.26,0,0,0-1.63.65A2.57,2.57,0,0,0,618.27,383.13Z"/>
      <path class="e" d="M626.09,388.08v-8.3h1.27V381a3.49,3.49,0,0,1,.89-1.17,1.65,1.65,0,0,1,.91-.28,2.77,2.77,0,0,1,1.44.46l-.48,1.3a2.07,2.07,0,0,0-1-.3,1.34,1.34,0,0,0-.82.27,1.58,1.58,0,0,0-.53.77,5.7,5.7,0,0,0-.23,1.64v4.35Z"/>
    </g>
  </g>
  <g>
    <path class="f" d="M329.49,139.76a23.9,23.9,0,0,0,5.41-47.18,43.79,43.79,0,0,0-82.12-20.75,18.67,18.67,0,0,0-25.89,14.69,26.88,26.88,0,0,0,5.26,53.24Z"/>
    <g>
      <path class="i" d="M290.41,102.87a.2.2,0,0,1-.11,0A.26.26,0,0,0,290.41,102.87Z"/>
      <path class="i" d="M233.75,95.55h-6.19v31h7.28q5.7,0,8-3.38c1.51-2.24,2.26-6.34,2.26-12.26s-.75-9.83-2.26-12S238.28,95.55,233.75,95.55Zm4.08,26.06a3,3,0,0,1-2.92,1.54h-1.12V99h1.12c1.42,0,2.4.88,2.94,2.63s.82,5,.82,9.63C238.64,117.1,238.37,120.57,237.83,121.61Z"/>
      <rect class="i" x="246.28" y="95.57" width="5.85" height="5.42"/>
      <rect class="i" x="246.28" y="102.8" width="5.85" height="23.73"/>
      <path class="i" d="M261.94,113.14a20.23,20.23,0,0,1-3.33-3.36,3.61,3.61,0,0,1-.54-1.88,1.65,1.65,0,0,1,.47-1.25,1.68,1.68,0,0,1,1.18-.43,1.56,1.56,0,0,1,1.32.66,2.92,2.92,0,0,1,.47,1.72h4.67a6,6,0,0,0-1.68-4.53,6.68,6.68,0,0,0-4.82-1.59,7.11,7.11,0,0,0-4.76,1.54,5.27,5.27,0,0,0-1.82,4.17,10.83,10.83,0,0,0,.73,4.22,12.59,12.59,0,0,0,3.4,4c1.4,1.21,2.42,2.16,3,2.81a2.86,2.86,0,0,1,.93,1.84,1.91,1.91,0,0,1-.44,1.38,1.66,1.66,0,0,1-1.31.46,1.7,1.7,0,0,1-1.38-.59,3,3,0,0,1-.48-1.88h-4.73a6.12,6.12,0,0,0,1.69,4.71,7.26,7.26,0,0,0,5.06,1.56,7,7,0,0,0,4.92-1.67,6.08,6.08,0,0,0,1.79-4.69,6.7,6.7,0,0,0-.95-3.52A17.78,17.78,0,0,0,261.94,113.14Z"/>
      <path class="i" d="M330.14,116.88a17.58,17.58,0,0,0-3.4-3.72,19.46,19.46,0,0,1-3.33-3.36,3.62,3.62,0,0,1-.55-1.88,1.58,1.58,0,0,1,.48-1.24,1.62,1.62,0,0,1,1.18-.43,1.53,1.53,0,0,1,1.31.65,2.86,2.86,0,0,1,.48,1.73H331a6,6,0,0,0-1.68-4.54,6.73,6.73,0,0,0-4.83-1.58,7.11,7.11,0,0,0-4.76,1.54,5.23,5.23,0,0,0-1.81,4.17,10.81,10.81,0,0,0,.73,4.21,12.34,12.34,0,0,0,3.4,4,39.14,39.14,0,0,1,3,2.81,2.84,2.84,0,0,1,.93,1.83,1.85,1.85,0,0,1-.45,1.39,1.73,1.73,0,0,1-1.32.45,1.67,1.67,0,0,1-1.38-.59,3,3,0,0,1-.47-1.88h-4.74a6.13,6.13,0,0,0,1.7,4.71,7.17,7.17,0,0,0,5.05,1.57,7,7,0,0,0,4.92-1.68,6.06,6.06,0,0,0,1.79-4.69A7,7,0,0,0,330.14,116.88Z"/>
      <path class="i" d="M286.94,115.13a3.49,3.49,0,0,1,3.49-3.49h0a3.49,3.49,0,0,1,3.49,3.49h0a3.49,3.49,0,0,1-3.49,3.49h0a3.49,3.49,0,0,1-3.49-3.49Zm.16,0a3.34,3.34,0,0,0,3.33,3.33h0a3.33,3.33,0,0,0,3.33-3.33h0a3.33,3.33,0,0,0-3.33-3.33h0a3.32,3.32,0,0,0-3.33,3.33Z"/>
      <path class="i" d="M291,115.13a.55.55,0,1,1-.55-.54A.55.55,0,0,1,291,115.13Z"/>
      <path class="i" d="M278.56,120.64h-2.2a4.14,4.14,0,0,1-.5,2,1.37,1.37,0,0,1-1.16.46c-.84,0-1.38-.5-1.61-1.48a38.63,38.63,0,0,1-.36-7,45.64,45.64,0,0,1,.32-6.62c.2-1.22.75-1.83,1.59-1.83a1.08,1.08,0,0,1,1.06.63,8,8,0,0,1,.32,2.81h2.56a13,13,0,0,1,2.15-3.22,5.55,5.55,0,0,0-1.24-2.13,6.48,6.48,0,0,0-4.88-1.77,6.63,6.63,0,0,0-6,3.06q-2,3.06-2,9.07c0,4,.63,7.07,1.9,9.09a6.18,6.18,0,0,0,5.6,3.06,7,7,0,0,0,4.9-1.5,4.51,4.51,0,0,0,1.2-1.88A14.17,14.17,0,0,1,278.56,120.64Z"/>
      <path class="i" d="M303.46,115.15a12.86,12.86,0,0,1-1.65,6.35,7.08,7.08,0,0,0,1.56,3.08,5.18,5.18,0,0,0,3.88,1.43,7.92,7.92,0,0,0,2.56-.39,2.74,2.74,0,0,0,1.47-1,5,5,0,0,1,.05.63,4.7,4.7,0,0,1,0,.52,4.05,4.05,0,0,1-.84,2.81,3.29,3.29,0,0,1-2.6,1,13,13,0,0,1-2.57-.28,10.36,10.36,0,0,1-2.28-.65l-.73,3.24a12.59,12.59,0,0,0,2.95.91,17.52,17.52,0,0,0,3.19.29,9,9,0,0,0,6-1.9,6.73,6.73,0,0,0,2.22-5.38v-23H310.9v.57a5.62,5.62,0,0,0-1.57-.68,7.09,7.09,0,0,0-1.83-.21,5.16,5.16,0,0,0-3.61,1.32,7.43,7.43,0,0,0-2.13,3.65c-.06.27-.15.59-.22,1a12.88,12.88,0,0,1,1.92,6.73m7.48,7a2.41,2.41,0,0,1-.75.43,2.93,2.93,0,0,1-1,.14,1.61,1.61,0,0,1-1.25-.48,2.64,2.64,0,0,1-.54-1.56c-.07-.75-.14-1.7-.18-2.83s-.07-2.34-.07-3.61c0-.81,0-1.72.07-2.78s.11-2,.2-2.93a3,3,0,0,1,.59-1.79,1.93,1.93,0,0,1,1.43-.47,5,5,0,0,1,.79.09,2.54,2.54,0,0,1,.7.25v15.54Z"/>
      <g>
        <path class="j" d="M290.43,110.57a4.55,4.55,0,0,0-3.17,7.82l0,0-1.18,1.29a5.94,5.94,0,0,0,1.38,1l.86-1.52h0a4.49,4.49,0,0,0,2.11.53A4.56,4.56,0,0,0,293.7,112l1.2-1.29a6.64,6.64,0,0,0-1.36-1.06l-.84,1.54A4.55,4.55,0,0,0,290.43,110.57Z"/>
        <path class="j" d="M284.56,121.29l-1.2,1.32a10.1,10.1,0,0,0,2.15,1.56l.89-1.56A7.62,7.62,0,0,1,284.56,121.29Z"/>
        <path class="j" d="M296.42,109.08l1.2-1.32a11.58,11.58,0,0,0-2.18-1.63l-.86,1.57A9.32,9.32,0,0,1,296.42,109.08Z"/>
        <path class="j" d="M295.06,110.55l1.2-1.29a8.09,8.09,0,0,0-1.77-1.34l-.86,1.54A6,6,0,0,1,295.06,110.55Z"/>
        <path class="j" d="M285.92,119.82l-1.2,1.29a8.6,8.6,0,0,0,1.77,1.3l.86-1.55A5.89,5.89,0,0,1,285.92,119.82Z"/>
        <path class="i" d="M284.13,115.13a6.3,6.3,0,0,0,1.93,4.53l1.18-1.29,0,0a4.45,4.45,0,0,1-1.38-3.26,4.56,4.56,0,0,1,4.55-4.56,4.43,4.43,0,0,1,2.27.62l.84-1.54a6.2,6.2,0,0,0-3.11-.82A6.31,6.31,0,0,0,284.13,115.13Z"/>
        <path class="i" d="M295,115.13a4.55,4.55,0,0,1-4.53,4.56,4.43,4.43,0,0,1-2.11-.53h0l-.86,1.52a6.3,6.3,0,0,0,7.46-10l-1.2,1.29A4.54,4.54,0,0,1,295,115.13Z"/>
        <path class="i" d="M282.14,115.13a8.29,8.29,0,0,0,2.58,6l1.2-1.3a6.45,6.45,0,0,1-2-4.69,6.53,6.53,0,0,1,6.53-6.52,6.38,6.38,0,0,1,3.22.86l.86-1.54a8.3,8.3,0,0,0-12.37,7.18Z"/>
        <path class="i" d="M296.94,115.13a6.54,6.54,0,0,1-6.53,6.53,6.45,6.45,0,0,1-3.08-.77l-.86,1.54a8.29,8.29,0,0,0,9.79-13.17l-1.2,1.29A6.46,6.46,0,0,1,296.94,115.13Z"/>
        <path class="i" d="M298.93,115.13a8.54,8.54,0,0,1-8.52,8.52,8.4,8.4,0,0,1-4.06-1l-.88,1.57a10.41,10.41,0,0,0,4.94,1.26,10.29,10.29,0,0,0,7.21-17.63l-1.2,1.32A8.19,8.19,0,0,1,298.93,115.13Z"/>
        <path class="i" d="M280.12,115.13a10.32,10.32,0,0,0,3.22,7.48l1.2-1.32a8.45,8.45,0,0,1-2.65-6.16,8.54,8.54,0,0,1,8.52-8.52,8.37,8.37,0,0,1,4.17,1.11l.86-1.56a10.28,10.28,0,0,0-15.32,9Z"/>
        <path class="i" d="M299,106.34l-1.18,1.27a10.5,10.5,0,0,1-12.38,16.72l-.88,1.57A12.26,12.26,0,0,0,299,106.34Z"/>
        <path class="i" d="M279.89,115.13a10.53,10.53,0,0,1,10.52-10.52,10.4,10.4,0,0,1,5.14,1.36l.84-1.51a11.89,11.89,0,0,0-5.8-1.57h-.2a12.29,12.29,0,0,0-12.29,12.17h0v.12A12.23,12.23,0,0,0,282,124.1l1.22-1.31A10.55,10.55,0,0,1,279.89,115.13Z"/>
      </g>
      <path class="i" d="M327.76,100.53a1.62,1.62,0,0,1,.34-.47,1.86,1.86,0,0,1,.5-.32,1.63,1.63,0,0,1,.59-.11,1.67,1.67,0,0,1,.59.11,1.34,1.34,0,0,1,.49.32,1.62,1.62,0,0,1,.34.47,1.37,1.37,0,0,1,.14.64,1.3,1.3,0,0,1-.14.63,1.82,1.82,0,0,1-.34.48,1.16,1.16,0,0,1-.49.29,1.68,1.68,0,0,1-.59.12,1.63,1.63,0,0,1-.59-.12,1.77,1.77,0,0,1-.5-.29,1.56,1.56,0,0,1-.48-1.11A2.76,2.76,0,0,1,327.76,100.53Zm.38,1.12a1.56,1.56,0,0,0,.25.38,1.51,1.51,0,0,0,.37.25,1.17,1.17,0,0,0,.9,0A1.21,1.21,0,0,0,330,102a1.07,1.07,0,0,0,.24-.38,1.2,1.2,0,0,0,0-1,1.09,1.09,0,0,0-.61-.63,1.17,1.17,0,0,0-.9,0,1,1,0,0,0-.37.25,1.14,1.14,0,0,0-.25.38,1.21,1.21,0,0,0-.09.48A1.28,1.28,0,0,0,328.14,101.65Zm1.09-1.34a1,1,0,0,1,.5.11.45.45,0,0,1,.18.39.79.79,0,0,1,0,.2,1.1,1.1,0,0,1-.09.14l-.14.09a1.72,1.72,0,0,1-.18,0l.45.75h-.36l-.41-.72h-.2V102h-.34v-1.72Zm0,.7a.93.93,0,0,0,.25,0c.07,0,.09-.1.09-.21s0-.09,0-.11a.35.35,0,0,0-.09-.07s-.07,0-.11,0h-.41V101Z"/>
    </g>
  </g>
  <g>
    <g>
      <circle class="k" cx="126.29" cy="404.89" r="43.08"/>
      <circle class="k" cx="126.29" cy="404.89" r="11.29"/>
      <circle class="k" cx="126.29" cy="404.89" r="1.43"/>
      <path class="k" d="M156.68,411.89a31.18,31.18,0,0,0-24.57-37.61"/>
      <path class="k" d="M130.74,381.53a23.82,23.82,0,0,1,16.86,12.78,23.58,23.58,0,0,1,1.86,15.93"/>
      <path class="k" d="M95.84,398.17a31.19,31.19,0,0,0,24.76,37.39"/>
      <path class="k" d="M122,428.28a23.79,23.79,0,0,1-18.91-28.49"/>
    </g>
    <path class="l" d="M86.7,449.77c.12,0,2.17,1.87,3.39,1.87h.12A3.72,3.72,0,0,0,92.73,450c.34-.34,14.62-23.33,23.89-37.2a272.56,272.56,0,0,1,20.62-27.93l.65-.78V384a4.06,4.06,0,0,0,.66-2.3,6.55,6.55,0,0,0-1.22-3.49,11,11,0,0,0-6.87-4.13H130a3.24,3.24,0,0,0-2.52,1.08c-3,3.46-11.57,13.91-26.53,39.32-5.88,10.14-9.7,17-12.1,21.58-4.69-6.43-12.31-17.44-19-28-4.14-6.53-10.14-18.54-17.76-32.38l-.56-1-.12-.13a2.67,2.67,0,0,0-2-1.09c-2.18,0-7.62,5.6-7.62,11.14,0,2.52,10.35,20,26.71,42.64C78.42,440.85,84.08,446.94,86.7,449.77Z"/>
    <g>
      <path class="l" d="M123.71,404.77v.12a2.66,2.66,0,0,0,2.49,2.83h.09A2.71,2.71,0,0,0,128.9,405v-.12a2.7,2.7,0,0,0-2.48-2.83h-.13A2.65,2.65,0,0,0,123.71,404.77Z"/>
      <path class="l" d="M171.58,415.65c-.13,0-.22.09-.34.34-1.34,2.52-3.15,5-4.36,5-.75,0-1-1.27-1-2.86v-1.55c0-4.55.4-10.36.4-14.34a40.67,40.67,0,0,0-.22-5.57,2.17,2.17,0,0,0-1.52-.75,3.86,3.86,0,0,0-1.87.87,58.71,58.71,0,0,0-.53,9.24c0,3.95.1,7.31.22,10,0,.12,0,1.27.25,2.67a17.17,17.17,0,0,1-2.74,2.89c0-5.13-.09-9.83-.18-10-.22-.44-.87-.56-1.84-.56s-1.49.18-1.74.56-.25,1.83-.25,5.1v1c-1.18,1.87-2.49,3.45-3.45,3.45s-1.12-1.64-1.12-3.6c0-1.34.12-3.61.12-4.89a3,3,0,0,0-.09-1c-.22-.44-1.06-.56-2.05-.56s-1.5.18-1.74.56a34.57,34.57,0,0,0-.35,5,13.74,13.74,0,0,0,.38,3.36,2.82,2.82,0,0,1-1.78,1.15c-2.52,0,.78-10-3.92-10-3,0-5.25,3.73-6.53,6.53.1-1.31.19-2.61.19-3.67a16.08,16.08,0,0,0-.22-2.58,3.07,3.07,0,0,0-1.43-.31h-.09a6,6,0,0,0-1.93.4,19.84,19.84,0,0,0-.47,4.23c0,1.09,0,2.09.1,3-1,1.43-2,2.48-2.8,2.48s-1.12-1.64-1.12-3.6c0-1.34.12-3.61.12-4.89a3,3,0,0,0-.09-1c-.22-.44-.87-.56-1.84-.56s-1.49.18-1.74.56a30.85,30.85,0,0,0-.34,5c0,4.14,1.18,7.28,4.17,7.28a5.27,5.27,0,0,0,4-2.17,10.36,10.36,0,0,0,.4,2c.13.21,1.28.21,1.28.21s1.18,0,1.3-.21l0,0c.22-.65,3-8.61,5.2-8.61s-1.18,8.89,5,8.89a4.89,4.89,0,0,0,3.51-1.74,3.57,3.57,0,0,0,3.11,1.74,5.5,5.5,0,0,0,4.35-2.7l.1,3.26c-3.89,2.49-7.4,4.39-7.4,8.74,0,3.27,2.05,5.7,5,5.7,2.09,0,5.42-1.56,5.85-6.72.19-1.93.31-4.67.34-7.53a19.15,19.15,0,0,0,3.36-3.42c.53,1.43,1.4,2.61,2.8,2.61,3.27,0,5.2-4,5.85-5.22a2.81,2.81,0,0,0,.22-1.09v-.25C172.11,416.46,171.89,415.65,171.58,415.65Zm-17.79,19.88a2.29,2.29,0,0,1-2.21-2.4c0-2.64,2-4.13,4.6-5.88,0,1.12,0,2.18,0,3C156.21,433.57,155.34,435.53,153.79,435.53Z"/>
    </g>
    <g>
      <path class="l" d="M109.37,435.56h.09a2.73,2.73,0,0,0,2.62-2.74v-.12a2.7,2.7,0,0,0-2.49-2.83h-.13a2.69,2.69,0,0,0-2.58,2.73v.13A2.67,2.67,0,0,0,109.37,435.56Z"/>
      <path class="l" d="M148.84,438.82h-.43c-.56,0-1.22.1-1.28.69-.22,3.17-1.55,9.39-3.23,9.39-1.93,0-2.65-7.09-3-9.39,0-.47-.47-.69-2.08-.69H138c-.53,0-1.19.1-1.22.69-.21,3.17-1.55,9.39-3.23,9.39-1.93,0-2.65-7.09-3-9.39,0-.47-.53-.69-2.08-.69-1.06,0-2,.1-2,.66v.12a26.86,26.86,0,0,0,.71,5.1c-1.49,2.46-3.17,4.05-6.25,4.05a3.2,3.2,0,0,1-3.39-2.43,8.49,8.49,0,0,0,2.74.47c2.71,0,5.1-1.4,5.1-4s-2.27-4-5.1-4a6.72,6.72,0,0,0-7,6.41,5.6,5.6,0,0,0,.53,2.33,3.06,3.06,0,0,1-1.9,1.31c-.9,0-1.12-1.65-1.12-3.61,0-1.34.13-3.61.13-4.88a2.72,2.72,0,0,0-.1-1c-.21-.43-.87-.56-1.83-.56s-1.49.19-1.74.56a31,31,0,0,0-.34,5c0,4.14,1.18,7.28,4.16,7.28a5.31,5.31,0,0,0,4-2.21,7.79,7.79,0,0,0,5.88,2.21c3.64,0,5.91-2.74,7-4.54.93,2.45,2.43,4.54,4.76,4.54,2.61,0,4.26-2.71,5.23-5.57.9,2.86,2.48,5.57,5.13,5.57,5.22,0,6.5-10.7,6.56-12.16v0C149.65,439,149.4,438.82,148.84,438.82Zm-28.52,2.9c1,0,1.87.4,1.87,1.55s-1.87,1.71-3.36,1.71a3.66,3.66,0,0,1-1.4-.18A3.2,3.2,0,0,1,120.32,441.72Z"/>
    </g>
  </g>
  <g>
    <g>
      <g>
        <line class="g" x1="304.5" y1="169.22" x2="304.5" y2="206.23"/>
        <path class="h" d="M304.46,218.27c-1.68-4.54-4.56-10.18-7.61-13.68l7.61,2.76,7.61-2.76C309,208.09,306.15,213.73,304.46,218.27Z"/>
      </g>
      <line class="g" x1="304.5" y1="166.42" x2="304.5" y2="167.37"/>
    </g>
    <g>
      <g>
        <line class="g" x1="254.15" y1="215.94" x2="254.15" y2="178.93"/>
        <path class="h" d="M254.19,166.89c1.69,4.55,4.56,10.18,7.61,13.68l-7.61-2.75-7.61,2.75C249.63,177.07,252.51,171.44,254.19,166.89Z"/>
      </g>
      <line class="g" x1="254.15" y1="218.75" x2="254.15" y2="217.8"/>
    </g>
  </g>
  <g>
    <g>
      <line class="g" x1="449.82" y1="284.44" x2="414.82" y2="296.46"/>
      <path class="h" d="M418.82,303.09c-4.29-1.75-10.56-2.63-15.4-2.75,3.75-3.07,8.14-7.62,10.46-11.64"/>
      <line class="g" x1="452.47" y1="283.53" x2="451.57" y2="283.83"/>
    </g>
    <g>
      <line class="g" x1="406.85" y1="351.44" x2="440.1" y2="367.68"/>
      <path class="h" d="M442,360.16c1.8,4.28,5.6,9.34,9,12.84-4.83-.48-11.15-.37-15.63.84"/>
      <line class="g" x1="404.33" y1="350.21" x2="405.19" y2="350.62"/>
    </g>
  </g>
</svg>
