<?xml version="1.0" encoding="utf-8"?>
<!-- Generator: Adobe Illustrator 22.0.1, SVG Export Plug-In . SVG Version: 6.00 Build 0)  -->
<svg version="1.1" id="Layer_1" xmlns="http://www.w3.org/2000/svg" xmlns:xlink="http://www.w3.org/1999/xlink" x="0px" y="0px"
	 viewBox="0 0 558 558" style="enable-background:new 0 0 558 558;" xml:space="preserve">
<style type="text/css">
	.st0{fill:#FFFFFF;}
</style>
<g>
	<path class="st0" d="M279.4,348.8c-12.2,0-21.1-6.3-29.8-13.9c-40.7,33.4-81.1,66.7-122.5,100.6c101.8,0,202.2,0,304.1,0
		c-41.5-34.2-82-67.5-122.5-101C300,342,291.6,348.9,279.4,348.8z"/>
	<path class="st0" d="M111.3,221c0,68.7,0,136.5,0,205.1c41.7-34.5,82.8-68.4,124.1-102.6C193.9,289.3,152.9,255.4,111.3,221z"/>
	<path class="st0" d="M266,325.5c9.3,7.7,16.8,7.7,26.1-0.1c46.5-38.4,93-76.7,139.6-115.1c1-0.8,2.2-1.3,3.5-2
		c-1.6-1.4-2-1.8-2.5-2.2c-47.2-39-94.3-78-141.5-117c-8.5-7-16.2-6.9-24.7,0.1c-25.8,21.3-51.6,42.7-77.4,64
		c-21.8,18-43.6,36.1-65.8,54.4c1.3,1.2,2.1,2,3,2.7C172.9,248.8,219.4,287.2,266,325.5z"/>
	<path class="st0" d="M446.9,426c0-68.9,0-136.5,0-205.2C405,255.4,364,289.3,322.5,323.6C364,357.7,405.1,391.6,446.9,426z"/>
	<path class="st0" d="M279,0C124.9,0,0,124.9,0,279s124.9,279,279,279s279-124.9,279-279S433.1,0,279,0z M464.8,420.6
		c0,19.3-13.4,32.8-32.8,32.8c-51.2,0.1-102.3,0-153.5,0c-50.9,0-101.7,0-152.6,0c-15.4,0-27.3-8.3-31.3-21.8c-1-3.3-1.4-7-1.4-10.4
		c-0.1-65.5-0.1-130.9-0.1-196.4c0-10.7,4.4-19.1,12.8-25.9c49.2-40.4,98.3-80.9,147.4-121.5c17.4-14.3,33.1-14.6,50.5-0.2
		c49.7,40.8,99.3,81.7,148.9,122.5c8,6.6,12,15.1,12,25.5C464.8,290.3,464.8,355.4,464.8,420.6z"/>
</g>
</svg>
