<?xml version="1.0" encoding="utf-8"?>
<!-- Generator: Adobe Illustrator 22.0.1, SVG Export Plug-In . SVG Version: 6.00 Build 0)  -->
<svg version="1.1" id="Layer_1" xmlns="http://www.w3.org/2000/svg" xmlns:xlink="http://www.w3.org/1999/xlink" x="0px" y="0px"
	 viewBox="0 0 476.9 476.5" style="enable-background:new 0 0 476.9 476.5;" xml:space="preserve">
<style type="text/css">
	.st0{fill:#FFFFFF;}
</style>
<path class="st0" d="M237.9,0C366.6-1.6,476,103.2,477,236.3c1,131.8-104.7,240.3-238.3,240.3C105.6,476.5,2.3,370.1,0,242.5
	C-2.4,106.5,108.6-1.1,237.9,0z M300.4,180.7c-0.5,0.2-1.1,0.5-1.7,0.6c-11.6-11.3-24.6-19.8-40.4-23.5c-15.6-3.7-31-3-46.2,2
	c-15.5,5.1-28.2,14.3-38.3,26.8c-23.3,28.9-24,70.6-2.3,99.9c11.2,15.2,25.6,25.8,43.8,30.9c34.8,9.6,63.7-0.9,87.8-27.1
	c3.1,4.3,5.4,8.2,8.4,11.6c13.8,15.3,42.4,16.1,58.2,1.6c7.3-6.6,12.5-14.4,16.3-23.6c9.4-22.9,10.8-46.9,7.9-71
	c-4.9-40.9-23-74.7-55.6-100.2c-33.4-26.1-71.9-35.7-113.4-30.5C161.8,86.3,117.3,120.7,93,179.4c-16.4,39.6-15.5,80.3,0.9,120.1
	c17.2,41.5,46.9,70.8,88.4,88c29.4,12.3,59.9,15.1,91.2,9c27.2-5.2,51.4-16.8,72.7-34.4c7.1-5.9,6-16.2-2-20.3
	c-6.1-3.2-10.9-0.3-15.6,3.3c-29.2,22.7-62.1,33.2-99.1,29.2c-49-5.4-85.8-30.2-108.1-73.8c-22.7-44-20.9-88.6,3.7-131.6
	c14.5-25.5,35.9-44.2,62.9-56.1c22-9.7,45-13.5,69.1-11c28.3,2.9,53.8,12.8,74.3,32.5c36.7,35.4,46.8,79,35.5,127.8
	c-1.6,7.2-5.8,14.2-10,20.5c-5,7.3-13,8.1-21.1,6.3c-7.5-1.7-9.9-7.7-10.9-14.4c-0.5-3.4-0.8-6.9-0.8-10.3c-0.1-30.5,0-61.1,0-91.6
	c0-2.3,0.1-4.5-0.2-6.8c-0.9-7.2-7.4-11.6-14.4-9.7c-5.9,1.5-8.6,5-8.8,11.6C300.2,172,300.4,176.4,300.4,180.7z"/>
<path class="st0" d="M180.3,238.4c-0.9-32,25-58.6,58-58.9c33-0.3,59.5,27.7,58.8,59.2c-0.7,31.9-26.3,58-58.1,58
	C204.2,296.7,179.2,267.7,180.3,238.4z"/>
</svg>
